<?xml version="1.0" encoding="utf-8"?>
<!-- Generator: Adobe Illustrator 21.1.0, SVG Export Plug-In . SVG Version: 6.00 Build 0)  -->
<svg version="1.1" id="Layer_1" xmlns="http://www.w3.org/2000/svg" xmlns:xlink="http://www.w3.org/1999/xlink" x="0px" y="0px"
	 viewBox="0 0 278 102.9" style="enable-background:new 0 0 278 102.9;" xml:space="preserve">
<style type="text/css">
	.st0{fill:#AD9B89;}
	.st1{opacity:0.75;}
	.st2{fill:#293770;}
</style>
<g>
	<path class="st0" d="M36.7,84.6c-0.6,0.1-6.8,1.1-6.9,1.6v11.7l0.1,5h32c0.5-8.1,0.8-16.2,0.6-19.3c-0.5-6.8,0.8-24.5,0.8-32.7
		c0-8.2,4.1-34.5,3.3-43c-0.1-1,1-8.1-0.6-7.9c-1.2,0.1-3.2,5-3.7,5.9c-2,3.4-4.9,6.3-7.8,9c-2.1,2-4.4,3.6-6.7,5.2
		C39.4,25.7,30.7,31,23.9,38.6c-1.8,1.9-4.1,4.6-3.8,7.4c1.9-2.2,3.9-4.3,6.5-5.8c7-4,15.2-5.4,21.7-0.4c8.5,6.3,8.5,20,5.6,29.1
		C51.3,77.2,45.1,82.6,36.7,84.6z"/>
	<g class="st1">
		<path class="st0" d="M70.6,56.1c-0.4,0-0.6-0.4-0.6-1.2c0-0.5,0.1-0.7,0.4-0.8c0.9-0.3,2.5-0.5,5-0.5c0.4,0,0.6,0.4,0.6,1.2
			c0,0.2,0,0.5,0,0.8v19.1h1.5c0.3,0,0.4,0.3,0.4,0.8s-0.1,0.9-0.2,1c-0.2,0.2-0.3,0.2-0.4,0.2h-6.6c-0.3,0-0.4-0.3-0.4-0.8
			s0.1-0.9,0.2-1c0.1-0.2,0.3-0.2,0.3-0.2H71c1.1,0,1.8-0.1,1.9-0.3c0.1-0.1,0.1-0.2,0.1-0.3v-18H70.6z"/>
		<path class="st0" d="M87,74.7c0.3,0,0.4,0.3,0.4,0.8s-0.1,0.9-0.2,1c-0.1,0.2-0.3,0.2-0.4,0.2H83l-6.8-8.8l5.9-5.9h3.1
			c0.3,0,0.5,0.3,0.6,0.8c0,0.1,0,0.3,0,0.4c0,0.6-0.1,0.9-0.4,0.9c-0.9,0-1.6,0.1-1.9,0.2s-0.6,0.3-0.7,0.4L79.6,68l5.1,5.6
			C85.3,74.4,86.1,74.7,87,74.7z"/>
		<path class="st0" d="M101.1,77.1c-2.1,0-3.7-0.7-4.8-2.2c-1.1-1.4-1.7-3.3-1.7-5.7c0-2.3,0.7-4.2,2.1-5.4c1.4-1.2,3.1-1.9,5.2-1.9
			l0,0c1.9,0,3.4,0.7,4.6,2.1c1.1,1.4,1.7,3.3,1.7,5.6s-0.7,4.2-2,5.5C105,76.4,103.2,77.1,101.1,77.1z M101.5,64.1
			c-1.7,0-2.9,0.9-3.5,2.6c-0.2,0.7-0.4,1.5-0.4,2.5c0,1.8,0.3,3.2,1,4.2c0.7,0.9,1.6,1.4,2.9,1.4c1.2,0,2.1-0.5,2.8-1.5
			c0.6-1,1-2.3,1-3.9c0-2.6-0.8-4.3-2.3-5C102.5,64.2,102,64.1,101.5,64.1z"/>
		<path class="st0" d="M123.2,77.1c-2.1,0-3.7-0.7-4.8-2.2c-1.1-1.4-1.7-3.3-1.7-5.7c0-2.3,0.7-4.2,2.1-5.4c1.4-1.2,3.2-1.9,5.2-1.9
			l0,0c1.9,0,3.4,0.7,4.6,2.1c1.1,1.4,1.7,3.3,1.7,5.6s-0.7,4.2-2,5.5C127,76.4,125.2,77.1,123.2,77.1z M123.5,64.1
			c-1.7,0-2.9,0.9-3.5,2.6c-0.2,0.7-0.4,1.5-0.4,2.5c0,1.8,0.3,3.2,1,4.2c0.7,0.9,1.6,1.4,2.9,1.4c1.2,0,2.1-0.5,2.8-1.5
			c0.6-1,1-2.3,1-3.9c0-2.6-0.8-4.3-2.3-5C124.5,64.2,124,64.1,123.5,64.1z"/>
		<path class="st0" d="M148.2,61.8h0.4c0.2,0,0.4,0.1,0.7,0.2c0.3,0.2,0.6,0.4,0.8,0.7c0.3,0.3,0.4,0.7,0.4,1.3c0,0.6-0.2,1-0.6,1.4
			c-0.4,0.4-0.9,0.6-1.4,0.6s-1-0.2-1.3-0.6c-0.4-0.4-0.5-0.8-0.5-1.3c-0.6,0.3-1,0.6-1.3,0.9s-0.5,0.7-0.7,1l-0.6,1v7.7h3.6
			c0.2,0,0.3,0.3,0.3,0.8s-0.1,0.9-0.2,1c-0.1,0.2-0.3,0.2-0.4,0.2h-8.5c-0.3,0-0.4-0.3-0.4-0.8s0.1-0.9,0.4-1.2
			c0.1-0.1,0.4-0.1,0.8-0.1c1,0,1.6-0.2,1.6-0.6v-9.7h-2.6c-0.4,0-0.6-0.3-0.6-0.9c0-0.6,0.1-1,0.4-1.1c0.5-0.2,1.2-0.4,2.1-0.4
			c0.9-0.1,1.5-0.1,1.7-0.1h0.7c0.4,0,0.6,0.1,0.6,0.2c0.1,0.2,0.1,0.4,0.1,0.9v0.6c0,0.1,0,0.2,0,0.4c0,0.1,0,0.2,0,0.3
			C145.3,62.6,146.9,61.8,148.2,61.8z"/>
		<path class="st0" d="M79.7,82.9h-1.3c-1,0-1.9,0.4-2.6,1.2c-0.9,1-1.4,2.4-1.4,4.3c0,2.7,0.8,4.4,2.3,5.2c0.5,0.2,1.1,0.4,1.7,0.4
			c0.9,0,2.1-0.4,3.4-1.2l1-0.6c0,0,0.1,0,0.3,0s0.4,0.2,0.6,0.6c0.3,0.4,0.4,0.7,0.4,0.9c0,0.2-0.1,0.4-0.2,0.5
			c-1.9,1.4-3.9,2.1-6,2.1s-3.7-0.7-4.9-2.1c-1.1-1.4-1.7-3.3-1.7-5.6c0-2.4,0.7-4.2,2.1-5.5s3.1-2,5.3-2c2.1,0,3.6,0.5,4.5,1.4
			c0.3,0.4,0.5,0.8,0.5,1.4s-0.2,1-0.6,1.4s-0.9,0.6-1.4,0.6c-0.6,0-1-0.2-1.4-0.6s-0.6-0.8-0.6-1.1C79.6,83.6,79.6,83.2,79.7,82.9z
			"/>
		<path class="st0" d="M98.4,96.1c-2.1,0-3.7-0.7-4.8-2.2c-1.1-1.4-1.7-3.3-1.7-5.7c0-2.3,0.7-4.2,2.1-5.4s3.1-1.9,5.2-1.9l0,0
			c1.9,0,3.4,0.7,4.6,2.1c1.1,1.4,1.7,3.3,1.7,5.6s-0.7,4.2-2,5.5C102.2,95.4,100.5,96.1,98.4,96.1z M98.8,83.1
			c-1.7,0-2.9,0.9-3.5,2.6c-0.2,0.7-0.4,1.5-0.4,2.5c0,1.8,0.3,3.2,1,4.2c0.7,0.9,1.6,1.4,2.9,1.4c1.2,0,2.1-0.5,2.8-1.5
			c0.6-1,1-2.3,1-3.9c0-2.6-0.8-4.3-2.3-5C99.7,83.2,99.3,83.1,98.8,83.1z"/>
		<path class="st0" d="M113.7,83.4c-0.4,0-0.6-0.4-0.6-1.1c0-0.5,0.1-0.7,0.4-0.8c0.5-0.2,1.3-0.4,2.2-0.5s1.5-0.1,1.7-0.1h0.4
			c0.4,0,0.7,0.1,0.8,0.2s0.2,0.6,0.2,1.4v0.3c1.5-0.8,2.8-1.4,4-1.7c0.4-0.1,0.9-0.1,1.5-0.1s1.2,0.1,1.8,0.4s1.1,0.6,1.4,1.1
			c0.6,0.9,0.9,2.2,0.9,4.1v7.3h2.3c0.3,0,0.4,0.3,0.4,0.8s-0.1,0.9-0.2,1c-0.1,0.2-0.3,0.2-0.4,0.2h-6.7c-0.3,0-0.4-0.3-0.4-0.8
			s0.1-0.9,0.2-1c0.1-0.2,0.3-0.2,0.4-0.2c1,0,1.5-0.2,1.5-0.6v-4.4c0-1.9-0.1-3.1-0.3-3.7s-0.5-1-0.8-1.3c-0.3-0.2-0.8-0.4-1.4-0.4
			c-1.1,0-2.4,0.6-4,1.9v8.5h2.5c0.3,0,0.4,0.3,0.4,0.8s-0.1,0.9-0.2,1c-0.1,0.2-0.3,0.2-0.4,0.2h-7.5c-0.3,0-0.4-0.3-0.4-0.8
			s0.1-0.9,0.2-1c0.1-0.2,0.3-0.2,0.3-0.2h0.2c1.1,0,1.8-0.1,1.9-0.3c0.1-0.1,0.1-0.2,0.1-0.3v-9.7h-2.4V83.4z"/>
		<path class="st0" d="M138.6,83.4c-0.4,0-0.6-0.4-0.6-1.1c0-0.5,0.1-0.7,0.4-0.8c0.5-0.2,1.3-0.4,2.2-0.5s1.5-0.1,1.7-0.1h0.4
			c0.4,0,0.7,0.1,0.8,0.2s0.2,0.6,0.2,1.4v0.3c1.5-0.8,2.8-1.4,4-1.7c0.4-0.1,0.9-0.1,1.5-0.1s1.2,0.1,1.8,0.4s1.1,0.6,1.4,1.1
			c0.6,0.9,0.9,2.2,0.9,4.1v7.3h2.3c0.3,0,0.4,0.3,0.4,0.8s-0.1,0.9-0.2,1c-0.1,0.2-0.3,0.2-0.4,0.2h-6.7c-0.3,0-0.4-0.3-0.4-0.8
			s0.1-0.9,0.2-1c0.1-0.2,0.3-0.2,0.4-0.2c1,0,1.5-0.2,1.5-0.6v-4.4c0-1.9-0.1-3.1-0.3-3.7s-0.5-1-0.8-1.3c-0.3-0.2-0.8-0.4-1.4-0.4
			c-1.1,0-2.4,0.6-4,1.9v8.5h2.5c0.3,0,0.4,0.3,0.4,0.8s-0.1,0.9-0.2,1c-0.1,0.2-0.3,0.2-0.4,0.2h-7.5c-0.3,0-0.4-0.3-0.4-0.8
			s0.1-0.9,0.2-1c0.1-0.2,0.3-0.2,0.3-0.2h0.2c1.1,0,1.8-0.1,1.9-0.3c0.1-0.1,0.1-0.2,0.1-0.3v-9.7h-2.4V83.4z"/>
		<path class="st0" d="M170.2,96.1c-2.2,0-3.8-0.7-4.9-2.1c-1.1-1.4-1.7-3.3-1.7-5.7c0-2.4,0.7-4.2,2.1-5.5c1.4-1.3,3.1-2,5.1-2l0,0
			c1.8,0,3.2,0.6,4.2,1.7s1.5,2.8,1.5,4.9c0,0.5-0.2,0.9-0.6,1.2c-0.4,0.3-0.9,0.5-1.6,0.5h-7.7c0.2,2.3,1,3.8,2.4,4.4
			c0.4,0.2,0.9,0.3,1.4,0.3s1-0.1,1.6-0.2c0.6-0.2,1.2-0.5,1.9-0.9c0.7-0.5,1.1-0.7,1.3-0.7c0.1,0,0.2,0.1,0.4,0.2
			c0.1,0.1,0.3,0.3,0.5,0.6c0.2,0.3,0.3,0.5,0.3,0.8s0,0.4-0.2,0.5C174.3,95.4,172.4,96.1,170.2,96.1z M173.5,86.9
			c0-2.6-0.9-3.8-2.9-3.8c-1,0-1.9,0.3-2.7,1s-1.3,1.6-1.3,2.8H173.5z"/>
		<path class="st0" d="M193.2,82.9h-1.4c-1,0-1.9,0.4-2.6,1.2c-0.9,1-1.4,2.4-1.4,4.3c0,2.7,0.8,4.4,2.3,5.2
			c0.5,0.2,1.1,0.4,1.7,0.4c0.9,0,2.1-0.4,3.4-1.2l1-0.6c0,0,0.1,0,0.3,0s0.4,0.2,0.6,0.6c0.3,0.4,0.4,0.7,0.4,0.9
			c0,0.2-0.1,0.4-0.2,0.5c-1.9,1.4-3.9,2.1-6,2.1s-3.7-0.7-4.9-2.1c-1.1-1.4-1.7-3.3-1.7-5.6c0-2.4,0.7-4.2,2.1-5.5
			c1.4-1.3,3.1-2,5.3-2c2.1,0,3.6,0.5,4.5,1.4c0.3,0.4,0.5,0.8,0.5,1.4s-0.2,1-0.6,1.4c-0.4,0.4-0.9,0.6-1.4,0.6
			c-0.6,0-1-0.2-1.4-0.6s-0.6-0.8-0.6-1.1C193.1,83.6,193.1,83.2,193.2,82.9z"/>
		<path class="st0" d="M204.7,83.4c0-1.5,0.2-2.3,0.5-2.3h0.2c1.5,0,2.3-0.2,2.3-0.6l0.6-3.2c0.1-0.5,0.8-0.8,1.9-0.8v4.7h4
			c0.2,0,0.4,0.3,0.4,0.9s-0.1,1-0.4,1.3c-0.1,0.1-0.2,0.1-0.3,0.1h-3.5v8.6c0,1.1,0.3,1.6,1,1.6s1.3-0.1,1.6-0.2s0.5-0.2,0.7-0.2
			s0.3,0.1,0.5,0.4s0.3,0.5,0.3,0.8s-0.1,0.5-0.3,0.6c-1.3,0.7-2.5,1-3.6,1c-2,0-3-1.4-3-4.1v-8.6C207.6,83.4,204.7,83.4,204.7,83.4
			z"/>
		<path class="st0" d="M222.1,83.4c-0.4,0-0.6-0.4-0.6-1.2c0-0.5,0.1-0.7,0.4-0.8c0.9-0.3,2.5-0.5,5-0.5l0,0c0.4,0,0.6,0.4,0.6,1.2
			v11.6h2.5c0.3,0,0.4,0.3,0.4,0.8s-0.1,0.9-0.2,1c-0.1,0.2-0.3,0.2-0.4,0.2h-7.5c-0.3,0-0.4-0.3-0.4-0.8s0.1-0.9,0.2-1
			c0.1-0.2,0.3-0.2,0.3-0.2h0.2c1.1,0,1.8-0.1,1.9-0.3c0.1-0.1,0.1-0.2,0.1-0.3v-9.7C224.6,83.4,222.1,83.4,222.1,83.4z"/>
		<path class="st0" d="M225.8,77.2c-0.9,0-1.5-0.4-1.9-1.2c-0.1-0.2-0.1-0.5-0.1-0.8c0-0.9,0.4-1.6,1.2-1.9c0.2-0.1,0.5-0.1,0.8-0.1
			c0.6,0,1,0.2,1.4,0.6s0.6,0.9,0.6,1.5s-0.2,1.1-0.6,1.4C226.9,77,226.4,77.2,225.8,77.2z"/>
		<path class="st0" d="M244.3,96.1c-2.1,0-3.7-0.7-4.8-2.2c-1.1-1.4-1.7-3.3-1.7-5.7c0-2.3,0.7-4.2,2.1-5.4s3.1-1.9,5.2-1.9l0,0
			c1.9,0,3.4,0.7,4.6,2.1c1.1,1.4,1.7,3.3,1.7,5.6s-0.7,4.2-2,5.5C248.1,95.4,246.4,96.1,244.3,96.1z M244.7,83.1
			c-1.7,0-2.9,0.9-3.5,2.6c-0.2,0.7-0.4,1.5-0.4,2.5c0,1.8,0.3,3.2,1,4.2c0.7,0.9,1.6,1.4,2.9,1.4c1.2,0,2.1-0.5,2.8-1.5
			s1-2.3,1-3.9c0-2.6-0.8-4.3-2.3-5C245.6,83.2,245.2,83.1,244.7,83.1z"/>
		<path class="st0" d="M259.6,83.4c-0.4,0-0.6-0.4-0.6-1.1c0-0.5,0.1-0.7,0.4-0.8c0.5-0.2,1.3-0.4,2.2-0.5c0.9-0.1,1.5-0.1,1.7-0.1
			h0.4c0.4,0,0.7,0.1,0.8,0.2c0.1,0.1,0.2,0.6,0.2,1.4v0.3c1.5-0.8,2.8-1.4,4-1.7c0.4-0.1,0.9-0.1,1.5-0.1s1.2,0.1,1.8,0.4
			c0.6,0.3,1.1,0.6,1.4,1.1c0.6,0.9,0.9,2.2,0.9,4.1v7.3h2.3c0.3,0,0.4,0.3,0.4,0.8s-0.1,0.9-0.2,1c-0.1,0.2-0.3,0.2-0.4,0.2h-6.7
			c-0.3,0-0.4-0.3-0.4-0.8s0.1-0.9,0.2-1c0.1-0.2,0.3-0.2,0.4-0.2c1,0,1.5-0.2,1.5-0.6v-4.4c0-1.9-0.1-3.1-0.3-3.7
			c-0.2-0.6-0.5-1-0.8-1.3c-0.3-0.2-0.8-0.4-1.4-0.4c-1.1,0-2.4,0.6-4,1.9v8.5h2.5c0.3,0,0.4,0.3,0.4,0.8s-0.1,0.9-0.2,1
			c-0.1,0.2-0.3,0.2-0.4,0.2h-7.5c-0.3,0-0.4-0.3-0.4-0.8s0.1-0.9,0.2-1c0.1-0.2,0.3-0.2,0.3-0.2h0.2c1.1,0,1.8-0.1,1.9-0.3
			c0.1-0.1,0.1-0.2,0.1-0.3v-9.7h-2.4V83.4z"/>
	</g>
	<g>
		<g>
			<g>
				<path class="st2" d="M71.6,57.1c-0.4,0-0.6-0.4-0.6-1.2c0-0.5,0.1-0.7,0.4-0.8c0.9-0.3,2.5-0.5,5-0.5c0.4,0,0.6,0.4,0.6,1.2
					c0,0.2,0,0.5,0,0.8v19.1h1.5c0.3,0,0.4,0.3,0.4,0.8s-0.1,0.9-0.2,1c-0.2,0.2-0.3,0.2-0.4,0.2h-6.6c-0.3,0-0.4-0.3-0.4-0.8
					s0.1-0.9,0.2-1c0.1-0.2,0.3-0.2,0.3-0.2H72c1.1,0,1.8-0.1,1.9-0.3c0.1-0.1,0.1-0.2,0.1-0.3v-18H71.6z"/>
				<path class="st2" d="M88,75.7c0.3,0,0.4,0.3,0.4,0.8s-0.1,0.9-0.2,1c-0.1,0.2-0.3,0.2-0.4,0.2H84l-6.8-8.8l5.9-5.9h3.1
					c0.3,0,0.5,0.3,0.6,0.8c0,0.1,0,0.3,0,0.4c0,0.6-0.1,0.9-0.4,0.9c-0.9,0-1.6,0.1-1.9,0.2s-0.6,0.3-0.7,0.4L80.6,69l5.1,5.6
					C86.3,75.4,87.1,75.7,88,75.7z"/>
			</g>
			<path class="st2" d="M102.1,78.1c-2.1,0-3.7-0.7-4.8-2.2c-1.1-1.4-1.7-3.3-1.7-5.7c0-2.3,0.7-4.2,2.1-5.4
				c1.4-1.2,3.1-1.9,5.2-1.9l0,0c1.9,0,3.4,0.7,4.6,2.1c1.1,1.4,1.7,3.3,1.7,5.6s-0.7,4.2-2,5.5C106,77.4,104.2,78.1,102.1,78.1z
				 M102.5,65.1c-1.7,0-2.9,0.9-3.5,2.6c-0.2,0.7-0.4,1.5-0.4,2.5c0,1.8,0.3,3.2,1,4.2c0.7,0.9,1.6,1.4,2.9,1.4
				c1.2,0,2.1-0.5,2.8-1.5c0.6-1,1-2.3,1-3.9c0-2.6-0.8-4.3-2.3-5C103.5,65.2,103,65.1,102.5,65.1z"/>
			<path class="st2" d="M124.2,78.1c-2.1,0-3.7-0.7-4.8-2.2c-1.1-1.4-1.7-3.3-1.7-5.7c0-2.3,0.7-4.2,2.1-5.4
				c1.4-1.2,3.2-1.9,5.2-1.9l0,0c1.9,0,3.4,0.7,4.6,2.1c1.1,1.4,1.7,3.3,1.7,5.6s-0.7,4.2-2,5.5C128,77.4,126.2,78.1,124.2,78.1z
				 M124.5,65.1c-1.7,0-2.9,0.9-3.5,2.6c-0.2,0.7-0.4,1.5-0.4,2.5c0,1.8,0.3,3.2,1,4.2c0.7,0.9,1.6,1.4,2.9,1.4
				c1.2,0,2.1-0.5,2.8-1.5c0.6-1,1-2.3,1-3.9c0-2.6-0.8-4.3-2.3-5C125.5,65.2,125,65.1,124.5,65.1z"/>
			<g>
				<path class="st2" d="M149.2,62.8h0.4c0.2,0,0.4,0.1,0.7,0.2c0.3,0.2,0.6,0.4,0.8,0.7c0.3,0.3,0.4,0.7,0.4,1.3
					c0,0.6-0.2,1-0.6,1.4c-0.4,0.4-0.9,0.6-1.4,0.6s-1-0.2-1.3-0.6c-0.4-0.4-0.5-0.8-0.5-1.3c-0.6,0.3-1,0.6-1.3,0.9s-0.5,0.7-0.7,1
					l-0.6,1v7.7h3.6c0.2,0,0.3,0.3,0.3,0.8s-0.1,0.9-0.2,1c-0.1,0.2-0.3,0.2-0.4,0.2h-8.5c-0.3,0-0.4-0.3-0.4-0.8s0.1-0.9,0.4-1.2
					c0.1-0.1,0.4-0.1,0.8-0.1c1,0,1.6-0.2,1.6-0.6v-9.7h-2.6c-0.4,0-0.6-0.3-0.6-0.9c0-0.6,0.1-1,0.4-1.1c0.5-0.2,1.2-0.4,2.1-0.4
					c0.9-0.1,1.5-0.1,1.7-0.1h0.7c0.4,0,0.6,0.1,0.6,0.2c0.1,0.2,0.1,0.4,0.1,0.9v0.6c0,0.1,0,0.2,0,0.4c0,0.1,0,0.2,0,0.3
					C146.3,63.6,147.9,62.8,149.2,62.8z"/>
			</g>
			<g>
				<path class="st2" d="M80.7,83.9h-1.3c-1,0-1.9,0.4-2.6,1.2c-0.9,1-1.4,2.4-1.4,4.3c0,2.7,0.8,4.4,2.3,5.2
					c0.5,0.2,1.1,0.4,1.7,0.4c0.9,0,2.1-0.4,3.4-1.2l1-0.6c0,0,0.1,0,0.3,0s0.4,0.2,0.6,0.6c0.3,0.4,0.4,0.7,0.4,0.9
					c0,0.2-0.1,0.4-0.2,0.5c-1.9,1.4-3.9,2.1-6,2.1s-3.7-0.7-4.9-2.1c-1.1-1.4-1.7-3.3-1.7-5.6c0-2.4,0.7-4.2,2.1-5.5s3.1-2,5.3-2
					c2.1,0,3.6,0.5,4.5,1.4c0.3,0.4,0.5,0.8,0.5,1.4s-0.2,1-0.6,1.4s-0.9,0.6-1.4,0.6c-0.6,0-1-0.2-1.4-0.6s-0.6-0.8-0.6-1.1
					C80.6,84.6,80.6,84.2,80.7,83.9z"/>
			</g>
			<path class="st2" d="M99.4,97.1c-2.1,0-3.7-0.7-4.8-2.2c-1.1-1.4-1.7-3.3-1.7-5.7c0-2.3,0.7-4.2,2.1-5.4s3.1-1.9,5.2-1.9l0,0
				c1.9,0,3.4,0.7,4.6,2.1c1.1,1.4,1.7,3.3,1.7,5.6s-0.7,4.2-2,5.5C103.2,96.4,101.5,97.1,99.4,97.1z M99.8,84.1
				c-1.7,0-2.9,0.9-3.5,2.6c-0.2,0.7-0.4,1.5-0.4,2.5c0,1.8,0.3,3.2,1,4.2c0.7,0.9,1.6,1.4,2.9,1.4c1.2,0,2.1-0.5,2.8-1.5
				c0.6-1,1-2.3,1-3.9c0-2.6-0.8-4.3-2.3-5C100.7,84.2,100.3,84.1,99.8,84.1z"/>
			<g>
				<path class="st2" d="M114.7,84.4c-0.4,0-0.6-0.4-0.6-1.1c0-0.5,0.1-0.7,0.4-0.8c0.5-0.2,1.3-0.4,2.2-0.5s1.5-0.1,1.7-0.1h0.4
					c0.4,0,0.7,0.1,0.8,0.2s0.2,0.6,0.2,1.4v0.3c1.5-0.8,2.8-1.4,4-1.7c0.4-0.1,0.9-0.1,1.5-0.1s1.2,0.1,1.8,0.4s1.1,0.6,1.4,1.1
					c0.6,0.9,0.9,2.2,0.9,4.1v7.3h2.3c0.3,0,0.4,0.3,0.4,0.8s-0.1,0.9-0.2,1c-0.1,0.2-0.3,0.2-0.4,0.2h-6.7c-0.3,0-0.4-0.3-0.4-0.8
					s0.1-0.9,0.2-1c0.1-0.2,0.3-0.2,0.4-0.2c1,0,1.5-0.2,1.5-0.6v-4.4c0-1.9-0.1-3.1-0.3-3.7s-0.5-1-0.8-1.3
					c-0.3-0.2-0.8-0.4-1.4-0.4c-1.1,0-2.4,0.6-4,1.9v8.5h2.5c0.3,0,0.4,0.3,0.4,0.8s-0.1,0.9-0.2,1c-0.1,0.2-0.3,0.2-0.4,0.2h-7.5
					c-0.3,0-0.4-0.3-0.4-0.8s0.1-0.9,0.2-1c0.1-0.2,0.3-0.2,0.3-0.2h0.2c1.1,0,1.8-0.1,1.9-0.3c0.1-0.1,0.1-0.2,0.1-0.3v-9.7h-2.4
					V84.4z"/>
			</g>
			<g>
				<path class="st2" d="M139.6,84.4c-0.4,0-0.6-0.4-0.6-1.1c0-0.5,0.1-0.7,0.4-0.8c0.5-0.2,1.3-0.4,2.2-0.5s1.5-0.1,1.7-0.1h0.4
					c0.4,0,0.7,0.1,0.8,0.2s0.2,0.6,0.2,1.4v0.3c1.5-0.8,2.8-1.4,4-1.7c0.4-0.1,0.9-0.1,1.5-0.1s1.2,0.1,1.8,0.4s1.1,0.6,1.4,1.1
					c0.6,0.9,0.9,2.2,0.9,4.1v7.3h2.3c0.3,0,0.4,0.3,0.4,0.8s-0.1,0.9-0.2,1c-0.1,0.2-0.3,0.2-0.4,0.2h-6.7c-0.3,0-0.4-0.3-0.4-0.8
					s0.1-0.9,0.2-1c0.1-0.2,0.3-0.2,0.4-0.2c1,0,1.5-0.2,1.5-0.6v-4.4c0-1.9-0.1-3.1-0.3-3.7s-0.5-1-0.8-1.3
					c-0.3-0.2-0.8-0.4-1.4-0.4c-1.1,0-2.4,0.6-4,1.9v8.5h2.5c0.3,0,0.4,0.3,0.4,0.8s-0.1,0.9-0.2,1c-0.1,0.2-0.3,0.2-0.4,0.2h-7.5
					c-0.3,0-0.4-0.3-0.4-0.8s0.1-0.9,0.2-1c0.1-0.2,0.3-0.2,0.3-0.2h0.2c1.1,0,1.8-0.1,1.9-0.3c0.1-0.1,0.1-0.2,0.1-0.3v-9.7h-2.4
					V84.4z"/>
			</g>
			<path class="st2" d="M171.2,97.1c-2.2,0-3.8-0.7-4.9-2.1c-1.1-1.4-1.7-3.3-1.7-5.7c0-2.4,0.7-4.2,2.1-5.5c1.4-1.3,3.1-2,5.1-2
				l0,0c1.8,0,3.2,0.6,4.2,1.7s1.5,2.8,1.5,4.9c0,0.5-0.2,0.9-0.6,1.2c-0.4,0.3-0.9,0.5-1.6,0.5h-7.7c0.2,2.3,1,3.8,2.4,4.4
				c0.4,0.2,0.9,0.3,1.4,0.3s1-0.1,1.6-0.2c0.6-0.2,1.2-0.5,1.9-0.9c0.7-0.5,1.1-0.7,1.3-0.7c0.1,0,0.2,0.1,0.4,0.2
				c0.1,0.1,0.3,0.3,0.5,0.6c0.2,0.3,0.3,0.5,0.3,0.8s0,0.4-0.2,0.5C175.3,96.4,173.4,97.1,171.2,97.1z M174.5,87.9
				c0-2.6-0.9-3.8-2.9-3.8c-1,0-1.9,0.3-2.7,1s-1.3,1.6-1.3,2.8H174.5z"/>
			<g>
				<path class="st2" d="M194.2,83.9h-1.4c-1,0-1.9,0.4-2.6,1.2c-0.9,1-1.4,2.4-1.4,4.3c0,2.7,0.8,4.4,2.3,5.2
					c0.5,0.2,1.1,0.4,1.7,0.4c0.9,0,2.1-0.4,3.4-1.2l1-0.6c0,0,0.1,0,0.3,0s0.4,0.2,0.6,0.6c0.3,0.4,0.4,0.7,0.4,0.9
					c0,0.2-0.1,0.4-0.2,0.5c-1.9,1.4-3.9,2.1-6,2.1s-3.7-0.7-4.9-2.1c-1.1-1.4-1.7-3.3-1.7-5.6c0-2.4,0.7-4.2,2.1-5.5
					c1.4-1.3,3.1-2,5.3-2c2.1,0,3.6,0.5,4.5,1.4c0.3,0.4,0.5,0.8,0.5,1.4s-0.2,1-0.6,1.4c-0.4,0.4-0.9,0.6-1.4,0.6
					c-0.6,0-1-0.2-1.4-0.6s-0.6-0.8-0.6-1.1C194.1,84.6,194.1,84.2,194.2,83.9z"/>
			</g>
			<g>
				<path class="st2" d="M205.7,84.4c0-1.5,0.2-2.3,0.5-2.3h0.2c1.5,0,2.3-0.2,2.3-0.6l0.6-3.2c0.1-0.5,0.8-0.8,1.9-0.8v4.7h4
					c0.2,0,0.4,0.3,0.4,0.9s-0.1,1-0.4,1.3c-0.1,0.1-0.2,0.1-0.3,0.1h-3.5v8.6c0,1.1,0.3,1.6,1,1.6s1.3-0.1,1.6-0.2s0.5-0.2,0.7-0.2
					s0.3,0.1,0.5,0.4s0.3,0.5,0.3,0.8s-0.1,0.5-0.3,0.6c-1.3,0.7-2.5,1-3.6,1c-2,0-3-1.4-3-4.1v-8.6
					C208.6,84.4,205.7,84.4,205.7,84.4z"/>
			</g>
			<g>
				<path class="st2" d="M223.1,84.4c-0.4,0-0.6-0.4-0.6-1.2c0-0.5,0.1-0.7,0.4-0.8c0.9-0.3,2.5-0.5,5-0.5l0,0
					c0.4,0,0.6,0.4,0.6,1.2v11.6h2.5c0.3,0,0.4,0.3,0.4,0.8s-0.1,0.9-0.2,1c-0.1,0.2-0.3,0.2-0.4,0.2h-7.5c-0.3,0-0.4-0.3-0.4-0.8
					s0.1-0.9,0.2-1c0.1-0.2,0.3-0.2,0.3-0.2h0.2c1.1,0,1.8-0.1,1.9-0.3c0.1-0.1,0.1-0.2,0.1-0.3v-9.7
					C225.6,84.4,223.1,84.4,223.1,84.4z"/>
				<path class="st2" d="M226.8,78.2c-0.9,0-1.5-0.4-1.9-1.2c-0.1-0.2-0.1-0.5-0.1-0.8c0-0.9,0.4-1.6,1.2-1.9
					c0.2-0.1,0.5-0.1,0.8-0.1c0.6,0,1,0.2,1.4,0.6s0.6,0.9,0.6,1.5s-0.2,1.1-0.6,1.4C227.9,78,227.4,78.2,226.8,78.2z"/>
			</g>
			<path class="st2" d="M245.3,97.1c-2.1,0-3.7-0.7-4.8-2.2c-1.1-1.4-1.7-3.3-1.7-5.7c0-2.3,0.7-4.2,2.1-5.4
				c1.4-1.3,3.1-1.9,5.2-1.9l0,0c1.9,0,3.4,0.7,4.6,2.1c1.1,1.4,1.7,3.3,1.7,5.6s-0.7,4.2-2,5.5C249.1,96.4,247.4,97.1,245.3,97.1z
				 M245.7,84.1c-1.7,0-2.9,0.9-3.5,2.6c-0.2,0.7-0.4,1.5-0.4,2.5c0,1.8,0.3,3.2,1,4.2c0.7,0.9,1.6,1.4,2.9,1.4
				c1.2,0,2.1-0.5,2.8-1.5s1-2.3,1-3.9c0-2.6-0.8-4.3-2.3-5C246.6,84.2,246.2,84.1,245.7,84.1z"/>
			<g>
				<path class="st2" d="M260.6,84.4c-0.4,0-0.6-0.4-0.6-1.1c0-0.5,0.1-0.7,0.4-0.8c0.5-0.2,1.3-0.4,2.2-0.5
					c0.9-0.1,1.5-0.1,1.7-0.1h0.4c0.4,0,0.7,0.1,0.8,0.2c0.1,0.1,0.2,0.6,0.2,1.4v0.3c1.5-0.8,2.8-1.4,4-1.7
					c0.4-0.1,0.9-0.1,1.5-0.1s1.2,0.1,1.8,0.4c0.6,0.3,1.1,0.6,1.4,1.1c0.6,0.9,0.9,2.2,0.9,4.1v7.3h2.3c0.3,0,0.4,0.3,0.4,0.8
					s-0.1,0.9-0.2,1c-0.1,0.2-0.3,0.2-0.4,0.2h-6.7c-0.3,0-0.4-0.3-0.4-0.8s0.1-0.9,0.2-1c0.1-0.2,0.3-0.2,0.4-0.2
					c1,0,1.5-0.2,1.5-0.6v-4.4c0-1.9-0.1-3.1-0.3-3.7c-0.2-0.6-0.5-1-0.8-1.3c-0.3-0.2-0.8-0.4-1.4-0.4c-1.1,0-2.4,0.6-4,1.9v8.5
					h2.5c0.3,0,0.4,0.3,0.4,0.8s-0.1,0.9-0.2,1c-0.1,0.2-0.3,0.2-0.4,0.2h-7.5c-0.3,0-0.4-0.3-0.4-0.8s0.1-0.9,0.2-1
					c0.1-0.2,0.3-0.2,0.3-0.2h0.2c1.1,0,1.8-0.1,1.9-0.3c0.1-0.1,0.1-0.2,0.1-0.3v-9.7h-2.4V84.4z"/>
			</g>
		</g>
	</g>
	<path class="st2" d="M26.9,84.2c6.7-1.4,17.9-5.8,21.6-11.8c1-1.6,1.7-3.2,2.2-5c1.9-6.6,0.7-14.3-2.8-19.9c-3.1-5-9-7.8-14.8-6.7
		c-2.6,0.5-5,2-6.6,4.2c-0.4,0.6-0.7,1.1-1,1.7c-0.6,1.3-1.2,2.6-1.5,3.9c-0.6,2.2,0,4.4,0.7,6.5c1.2,3.5,4.2,6.9,8.1,7.2
		c5,0.4,10-5.1,6.1-9.5c-1.4-1.6-3.9-2.7-6-1.9c-2,0.8-2.6,2.9-3.1,4.8c-1.6-2.1-2.9-4.4-2.3-7.1c1.1-5.1,6.7-7.3,11.3-5.4
		c6.5,2.7,9.3,10.4,6.1,16.7c-0.6,1.2-1.4,2.3-2.3,3.2c-0.7,0.7-1.6,1.3-2.5,1.7c-2.5,1.2-9.1,1.4-11.7,0.8
		c-0.9-0.2-1.8-0.5-2.6-0.8c-2.9-1.2-5.6-3.3-7.6-5.8c-3.1-3.8-4.8-9.8-3.7-14.8c1-4.3,4.2-7.3,7.1-10.5c5-5.5,10.2-11.5,14.3-17.7
		c1.7-2.6,3.1-10.3,3.5-14.6H0.8c-0.1,9.1,0.2,24.1-0.3,28.9c-1.3,10.9,0.8,37.4,0.2,44.5c-0.4,4-0.6,12.9-0.7,21.1h23.8h0.3
		l-0.4-13C23.7,84.6,26.7,84.2,26.9,84.2z"/>
</g>
</svg>
