<?xml version="1.0" encoding="utf-8"?>
<!-- Generator: Adobe Illustrator 19.2.1, SVG Export Plug-In . SVG Version: 6.00 Build 0)  -->
<svg version="1.1" id="Layer_1" xmlns="http://www.w3.org/2000/svg" xmlns:xlink="http://www.w3.org/1999/xlink" x="0px" y="0px"
	 viewBox="0 0 297.8 122" style="enable-background:new 0 0 297.8 122;" xml:space="preserve">
<style type="text/css">
	.Arched_x0020_Green{fill:url(#SVGID_1_);stroke:#FFFFFF;stroke-width:0.25;stroke-miterlimit:1;}
	.st0{clip-path:url(#SVGID_3_);fill:#AD9B89;}
	.st1{clip-path:url(#SVGID_3_);}
	.st2{opacity:0.75;}
	.st3{fill:#AD9B89;}
	.st4{fill:#293770;}
	.st5{display:none;clip-path:url(#SVGID_3_);fill:#414042;}
	.st6{clip-path:url(#SVGID_3_);fill:#293770;}
</style>
<linearGradient id="SVGID_1_" gradientUnits="userSpaceOnUse" x1="-252" y1="536.6387" x2="-251.2929" y2="535.9316">
	<stop  offset="0" style="stop-color:#20AC4B"/>
	<stop  offset="0.9831" style="stop-color:#19361A"/>
</linearGradient>
<g>
	<defs>
		<polygon id="SVGID_2_" points="293.6,108.7 82,108.7 82,113.7 44.5,113.7 44.4,108.7 38.4,108.7 12.9,108.7 12.9,14.2 76,14.2 
			82.7,8.2 84.6,14.2 293.6,14.2 		"/>
	</defs>
	<clipPath id="SVGID_3_">
		<use xlink:href="#SVGID_2_"  style="overflow:visible;"/>
	</clipPath>
	<path class="st0" d="M44.5,136.9l-0.1-28.2c0,0,0-11.7,0-11.7c0.1-0.5,6.3-1.5,6.9-1.6c8.4-2,14.6-7.4,17.2-15.7
		c2.9-9.1,2.9-22.8-5.6-29.1C56.4,45.6,48.2,47,41.2,51c-2.6,1.5-4.6,3.6-6.5,5.8c-0.3-2.8,2-5.5,3.8-7.4
		c6.8-7.6,15.5-12.9,23.9-18.5c2.3-1.6,4.6-3.2,6.7-5.2c2.9-2.7,5.8-5.6,7.8-9c0.5-0.9,2.5-5.8,3.7-5.9c1.6-0.2,0.5,6.9,0.6,7.9
		c0.8,8.5-3.3,34.8-3.3,43c0,8.2-1.3,25.9-0.8,32.7c0.4,6.7-1.7,37.3-2.3,40c-0.6,2.7,10.1,5.5,6.7,5c-3.4-0.5-16-2.2-19.7-1.7
		C58.1,138.2,44.5,136.9,44.5,136.9z"/>
	<g class="st1">
		<g class="st2">
			<path class="st3" d="M85.2,66.9c-0.4,0-0.6-0.4-0.6-1.2c0-0.5,0.1-0.7,0.4-0.8c0.9-0.3,2.5-0.5,5-0.5c0.4,0,0.6,0.4,0.6,1.2
				c0,0.2,0,0.5,0,0.8v19.1h1.5c0.3,0,0.4,0.3,0.4,0.8c0,0.5-0.1,0.9-0.2,1c-0.2,0.2-0.3,0.2-0.4,0.2h-6.6c-0.3,0-0.4-0.3-0.4-0.8
				c0-0.5,0.1-0.9,0.2-1c0.1-0.2,0.3-0.2,0.3-0.2h0.2c1.1,0,1.8-0.1,1.9-0.3c0.1-0.1,0.1-0.2,0.1-0.3V66.9H85.2z"/>
			<path class="st3" d="M101.6,85.5c0.3,0,0.4,0.3,0.4,0.8c0,0.5-0.1,0.9-0.2,1c-0.1,0.2-0.3,0.2-0.4,0.2h-3.8l-6.8-8.8l5.9-5.9h3.1
				c0.3,0,0.5,0.3,0.6,0.8c0,0.1,0,0.3,0,0.4c0,0.6-0.1,0.9-0.4,0.9c-0.9,0-1.6,0.1-1.9,0.2c-0.3,0.1-0.6,0.3-0.7,0.4l-3.2,3.3
				l5.1,5.6C99.9,85.2,100.7,85.5,101.6,85.5z"/>
			<path class="st3" d="M115.7,87.9c-2.1,0-3.7-0.7-4.8-2.2c-1.1-1.4-1.7-3.3-1.7-5.7c0-2.3,0.7-4.2,2.1-5.4s3.1-1.9,5.2-1.9h0
				c1.9,0,3.4,0.7,4.6,2.1c1.1,1.4,1.7,3.3,1.7,5.6s-0.7,4.2-2,5.5C119.6,87.2,117.8,87.9,115.7,87.9z M116.1,74.9
				c-1.7,0-2.9,0.9-3.5,2.6c-0.2,0.7-0.4,1.5-0.4,2.5c0,1.8,0.3,3.2,1,4.2c0.7,0.9,1.6,1.4,2.9,1.4c1.2,0,2.1-0.5,2.8-1.5
				c0.6-1,1-2.3,1-3.9c0-2.6-0.8-4.3-2.3-5C117.1,75,116.6,74.9,116.1,74.9z"/>
			<path class="st3" d="M137.8,87.9c-2.1,0-3.7-0.7-4.8-2.2c-1.1-1.4-1.7-3.3-1.7-5.7c0-2.3,0.7-4.2,2.1-5.4s3.2-1.9,5.2-1.9h0
				c1.9,0,3.4,0.7,4.6,2.1c1.1,1.4,1.7,3.3,1.7,5.6s-0.7,4.2-2,5.5C141.6,87.2,139.8,87.9,137.8,87.9z M138.1,74.9
				c-1.7,0-2.9,0.9-3.5,2.6c-0.2,0.7-0.4,1.5-0.4,2.5c0,1.8,0.3,3.2,1,4.2c0.7,0.9,1.6,1.4,2.9,1.4c1.2,0,2.1-0.5,2.8-1.5
				c0.6-1,1-2.3,1-3.9c0-2.6-0.8-4.3-2.3-5C139.1,75,138.6,74.9,138.1,74.9z"/>
			<path class="st3" d="M162.8,72.6l0.4,0c0.2,0,0.4,0.1,0.7,0.2c0.3,0.2,0.6,0.4,0.8,0.7c0.3,0.3,0.4,0.7,0.4,1.3
				c0,0.6-0.2,1-0.6,1.4c-0.4,0.4-0.9,0.6-1.4,0.6c-0.5,0-1-0.2-1.3-0.6c-0.4-0.4-0.5-0.8-0.5-1.3c-0.6,0.3-1,0.6-1.3,0.9
				c-0.3,0.3-0.5,0.7-0.7,1l-0.6,1v7.7h3.6c0.2,0,0.3,0.3,0.3,0.8c0,0.5-0.1,0.9-0.2,1c-0.1,0.2-0.3,0.2-0.4,0.2h-8.5
				c-0.3,0-0.4-0.3-0.4-0.8c0-0.5,0.1-0.9,0.4-1.2c0.1-0.1,0.4-0.1,0.8-0.1c1,0,1.6-0.2,1.6-0.6v-9.7h-2.6c-0.4,0-0.6-0.3-0.6-0.9
				c0-0.6,0.1-1,0.4-1.1c0.5-0.2,1.2-0.4,2.1-0.4c0.9-0.1,1.5-0.1,1.7-0.1h0.7c0.4,0,0.6,0.1,0.6,0.2c0.1,0.2,0.1,0.4,0.1,0.9l0,0.6
				c0,0.1,0,0.2,0,0.4c0,0.1,0,0.2,0,0.3C159.9,73.4,161.5,72.6,162.8,72.6z"/>
			<path class="st3" d="M94.3,93.7H93c-1,0-1.9,0.4-2.6,1.2c-0.9,1-1.4,2.4-1.4,4.3c0,2.7,0.8,4.4,2.3,5.2c0.5,0.2,1.1,0.4,1.7,0.4
				c0.9,0,2.1-0.4,3.4-1.2l1-0.6c0,0,0.1,0,0.3,0s0.4,0.2,0.6,0.6c0.3,0.4,0.4,0.7,0.4,0.9c0,0.2-0.1,0.4-0.2,0.5
				c-1.9,1.4-3.9,2.1-6,2.1c-2.1,0-3.7-0.7-4.9-2.1c-1.1-1.4-1.7-3.3-1.7-5.6c0-2.4,0.7-4.2,2.1-5.5c1.4-1.3,3.1-2,5.3-2
				c2.1,0,3.6,0.5,4.5,1.4c0.3,0.4,0.5,0.8,0.5,1.4c0,0.6-0.2,1-0.6,1.4c-0.4,0.4-0.9,0.6-1.4,0.6c-0.6,0-1-0.2-1.4-0.6
				c-0.4-0.4-0.6-0.8-0.6-1.1C94.2,94.4,94.2,94,94.3,93.7z"/>
			<path class="st3" d="M113,106.9c-2.1,0-3.7-0.7-4.8-2.2c-1.1-1.4-1.7-3.3-1.7-5.7c0-2.3,0.7-4.2,2.1-5.4s3.1-1.9,5.2-1.9h0
				c1.9,0,3.4,0.7,4.6,2.1c1.1,1.4,1.7,3.3,1.7,5.6s-0.7,4.2-2,5.5C116.8,106.2,115.1,106.9,113,106.9z M113.4,93.9
				c-1.7,0-2.9,0.9-3.5,2.6c-0.2,0.7-0.4,1.5-0.4,2.5c0,1.8,0.3,3.2,1,4.2c0.7,0.9,1.6,1.4,2.9,1.4c1.2,0,2.1-0.5,2.8-1.5
				c0.6-1,1-2.3,1-3.9c0-2.6-0.8-4.3-2.3-5C114.3,94,113.9,93.9,113.4,93.9z"/>
			<path class="st3" d="M128.3,94.2c-0.4,0-0.6-0.4-0.6-1.1c0-0.5,0.1-0.7,0.4-0.8c0.5-0.2,1.3-0.4,2.2-0.5c0.9-0.1,1.5-0.1,1.7-0.1
				h0.4c0.4,0,0.7,0.1,0.8,0.2c0.1,0.1,0.2,0.6,0.2,1.4v0.3c1.5-0.8,2.8-1.4,4-1.7c0.4-0.1,0.9-0.1,1.5-0.1c0.6,0,1.2,0.1,1.8,0.4
				c0.6,0.3,1.1,0.6,1.4,1.1c0.6,0.9,0.9,2.2,0.9,4.1v7.3h2.3c0.3,0,0.4,0.3,0.4,0.8c0,0.5-0.1,0.9-0.2,1c-0.1,0.2-0.3,0.2-0.4,0.2
				h-6.7c-0.3,0-0.4-0.3-0.4-0.8c0-0.5,0.1-0.9,0.2-1c0.1-0.2,0.3-0.2,0.4-0.2c1,0,1.5-0.2,1.5-0.6v-4.4c0-1.9-0.1-3.1-0.3-3.7
				c-0.2-0.6-0.5-1-0.8-1.3c-0.3-0.2-0.8-0.4-1.4-0.4c-1.1,0-2.4,0.6-4,1.9v8.5h2.5c0.3,0,0.4,0.3,0.4,0.8c0,0.5-0.1,0.9-0.2,1
				c-0.1,0.2-0.3,0.2-0.4,0.2h-7.5c-0.3,0-0.4-0.3-0.4-0.8c0-0.5,0.1-0.9,0.2-1c0.1-0.2,0.3-0.2,0.3-0.2h0.2c1.1,0,1.8-0.1,1.9-0.3
				c0.1-0.1,0.1-0.2,0.1-0.3v-9.7H128.3z"/>
			<path class="st3" d="M153.2,94.2c-0.4,0-0.6-0.4-0.6-1.1c0-0.5,0.1-0.7,0.4-0.8c0.5-0.2,1.3-0.4,2.2-0.5c0.9-0.1,1.5-0.1,1.7-0.1
				h0.4c0.4,0,0.7,0.1,0.8,0.2c0.1,0.1,0.2,0.6,0.2,1.4v0.3c1.5-0.8,2.8-1.4,4-1.7c0.4-0.1,0.9-0.1,1.5-0.1c0.6,0,1.2,0.1,1.8,0.4
				c0.6,0.3,1.1,0.6,1.4,1.1c0.6,0.9,0.9,2.2,0.9,4.1v7.3h2.3c0.3,0,0.4,0.3,0.4,0.8c0,0.5-0.1,0.9-0.2,1c-0.1,0.2-0.3,0.2-0.4,0.2
				h-6.7c-0.3,0-0.4-0.3-0.4-0.8c0-0.5,0.1-0.9,0.2-1c0.1-0.2,0.3-0.2,0.4-0.2c1,0,1.5-0.2,1.5-0.6v-4.4c0-1.9-0.1-3.1-0.3-3.7
				c-0.2-0.6-0.5-1-0.8-1.3c-0.3-0.2-0.8-0.4-1.4-0.4c-1.1,0-2.4,0.6-4,1.9v8.5h2.5c0.3,0,0.4,0.3,0.4,0.8c0,0.5-0.1,0.9-0.2,1
				c-0.1,0.2-0.3,0.2-0.4,0.2h-7.5c-0.3,0-0.4-0.3-0.4-0.8c0-0.5,0.1-0.9,0.2-1c0.1-0.2,0.3-0.2,0.3-0.2h0.2c1.1,0,1.8-0.1,1.9-0.3
				c0.1-0.1,0.1-0.2,0.1-0.3v-9.7H153.2z"/>
			<path class="st3" d="M184.8,106.9c-2.2,0-3.8-0.7-4.9-2.1c-1.1-1.4-1.7-3.3-1.7-5.7c0-2.4,0.7-4.2,2.1-5.5c1.4-1.3,3.1-2,5.1-2h0
				c1.8,0,3.2,0.6,4.2,1.7c1,1.1,1.5,2.8,1.5,4.9c0,0.5-0.2,0.9-0.6,1.2c-0.4,0.3-0.9,0.5-1.6,0.5h-7.7c0.2,2.3,1,3.8,2.4,4.4
				c0.4,0.2,0.9,0.3,1.4,0.3c0.5,0,1-0.1,1.6-0.2c0.6-0.2,1.2-0.5,1.9-0.9c0.7-0.5,1.1-0.7,1.3-0.7c0.1,0,0.2,0.1,0.4,0.2
				c0.1,0.1,0.3,0.3,0.5,0.6c0.2,0.3,0.3,0.5,0.3,0.8c0,0.3,0,0.4-0.2,0.5C188.9,106.2,187,106.9,184.8,106.9z M188.1,97.7
				c0-2.6-0.9-3.8-2.9-3.8c-1,0-1.9,0.3-2.7,1c-0.8,0.7-1.3,1.6-1.3,2.8H188.1z"/>
			<path class="st3" d="M207.8,93.7h-1.4c-1,0-1.9,0.4-2.6,1.2c-0.9,1-1.4,2.4-1.4,4.3c0,2.7,0.8,4.4,2.3,5.2
				c0.5,0.2,1.1,0.4,1.7,0.4c0.9,0,2.1-0.4,3.4-1.2l1-0.6c0,0,0.1,0,0.3,0s0.4,0.2,0.6,0.6c0.3,0.4,0.4,0.7,0.4,0.9
				c0,0.2-0.1,0.4-0.2,0.5c-1.9,1.4-3.9,2.1-6,2.1c-2.1,0-3.7-0.7-4.9-2.1c-1.1-1.4-1.7-3.3-1.7-5.6c0-2.4,0.7-4.2,2.1-5.5
				c1.4-1.3,3.1-2,5.3-2c2.1,0,3.6,0.5,4.5,1.4c0.3,0.4,0.5,0.8,0.5,1.4c0,0.6-0.2,1-0.6,1.4c-0.4,0.4-0.9,0.6-1.4,0.6
				c-0.6,0-1-0.2-1.4-0.6c-0.4-0.4-0.6-0.8-0.6-1.1C207.7,94.4,207.7,94,207.8,93.7z"/>
			<path class="st3" d="M219.3,94.2c0-1.5,0.2-2.3,0.5-2.3h0.2c1.5,0,2.3-0.2,2.3-0.6l0.6-3.2c0.1-0.5,0.8-0.8,1.9-0.8v4.7h4
				c0.2,0,0.4,0.3,0.4,0.9c0,0.6-0.1,1-0.4,1.3c-0.1,0.1-0.2,0.1-0.3,0.1H225v8.6c0,1.1,0.3,1.6,1,1.6c0.7,0,1.3-0.1,1.6-0.2
				c0.3-0.1,0.5-0.2,0.7-0.2c0.2,0,0.3,0.1,0.5,0.4c0.2,0.3,0.3,0.5,0.3,0.8c0,0.3-0.1,0.5-0.3,0.6c-1.3,0.7-2.5,1-3.6,1
				c-2,0-3-1.4-3-4.1v-8.6H219.3z"/>
			<path class="st3" d="M236.7,94.2c-0.4,0-0.6-0.4-0.6-1.2c0-0.5,0.1-0.7,0.4-0.8c0.9-0.3,2.5-0.5,5-0.5h0c0.4,0,0.6,0.4,0.6,1.2
				v11.6h2.5c0.3,0,0.4,0.3,0.4,0.8c0,0.5-0.1,0.9-0.2,1c-0.1,0.2-0.3,0.2-0.4,0.2h-7.5c-0.3,0-0.4-0.3-0.4-0.8c0-0.5,0.1-0.9,0.2-1
				c0.1-0.2,0.3-0.2,0.3-0.2h0.2c1.1,0,1.8-0.1,1.9-0.3c0.1-0.1,0.1-0.2,0.1-0.3v-9.7H236.7z"/>
			<path class="st3" d="M240.4,88c-0.9,0-1.5-0.4-1.9-1.2c-0.1-0.2-0.1-0.5-0.1-0.8c0-0.9,0.4-1.6,1.2-1.9c0.2-0.1,0.5-0.1,0.8-0.1
				c0.6,0,1,0.2,1.4,0.6c0.4,0.4,0.6,0.9,0.6,1.5c0,0.6-0.2,1.1-0.6,1.4C241.5,87.8,241,88,240.4,88z"/>
			<path class="st3" d="M258.9,106.9c-2.1,0-3.7-0.7-4.8-2.2c-1.1-1.4-1.7-3.3-1.7-5.7c0-2.3,0.7-4.2,2.1-5.4s3.1-1.9,5.2-1.9h0
				c1.9,0,3.4,0.7,4.6,2.1c1.1,1.4,1.7,3.3,1.7,5.6s-0.7,4.2-2,5.5C262.7,106.2,261,106.9,258.9,106.9z M259.3,93.9
				c-1.7,0-2.9,0.9-3.5,2.6c-0.2,0.7-0.4,1.5-0.4,2.5c0,1.8,0.3,3.2,1,4.2c0.7,0.9,1.6,1.4,2.9,1.4c1.2,0,2.1-0.5,2.8-1.5
				s1-2.3,1-3.9c0-2.6-0.8-4.3-2.3-5C260.2,94,259.8,93.9,259.3,93.9z"/>
			<path class="st3" d="M274.2,94.2c-0.4,0-0.6-0.4-0.6-1.1c0-0.5,0.1-0.7,0.4-0.8c0.5-0.2,1.3-0.4,2.2-0.5c0.9-0.1,1.5-0.1,1.7-0.1
				h0.4c0.4,0,0.7,0.1,0.8,0.2c0.1,0.1,0.2,0.6,0.2,1.4v0.3c1.5-0.8,2.8-1.4,4-1.7c0.4-0.1,0.9-0.1,1.5-0.1c0.6,0,1.2,0.1,1.8,0.4
				c0.6,0.3,1.1,0.6,1.4,1.1c0.6,0.9,0.9,2.2,0.9,4.1v7.3h2.3c0.3,0,0.4,0.3,0.4,0.8c0,0.5-0.1,0.9-0.2,1c-0.1,0.2-0.3,0.2-0.4,0.2
				h-6.7c-0.3,0-0.4-0.3-0.4-0.8c0-0.5,0.1-0.9,0.2-1c0.1-0.2,0.3-0.2,0.4-0.2c1,0,1.5-0.2,1.5-0.6v-4.4c0-1.9-0.1-3.1-0.3-3.7
				c-0.2-0.6-0.5-1-0.8-1.3c-0.3-0.2-0.8-0.4-1.4-0.4c-1.1,0-2.4,0.6-4,1.9v8.5h2.5c0.3,0,0.4,0.3,0.4,0.8c0,0.5-0.1,0.9-0.2,1
				c-0.1,0.2-0.3,0.2-0.4,0.2h-7.5c-0.3,0-0.4-0.3-0.4-0.8c0-0.5,0.1-0.9,0.2-1c0.1-0.2,0.3-0.2,0.3-0.2h0.2c1.1,0,1.8-0.1,1.9-0.3
				c0.1-0.1,0.1-0.2,0.1-0.3v-9.7H274.2z"/>
		</g>
		<g>
			<g>
				<g>
					<path class="st4" d="M86.2,67.9c-0.4,0-0.6-0.4-0.6-1.2c0-0.5,0.1-0.7,0.4-0.8c0.9-0.3,2.5-0.5,5-0.5c0.4,0,0.6,0.4,0.6,1.2
						c0,0.2,0,0.5,0,0.8v19.1h1.5c0.3,0,0.4,0.3,0.4,0.8c0,0.5-0.1,0.9-0.2,1c-0.2,0.2-0.3,0.2-0.4,0.2h-6.6c-0.3,0-0.4-0.3-0.4-0.8
						c0-0.5,0.1-0.9,0.2-1c0.1-0.2,0.3-0.2,0.3-0.2h0.2c1.1,0,1.8-0.1,1.9-0.3c0.1-0.1,0.1-0.2,0.1-0.3V67.9H86.2z"/>
					<path class="st4" d="M102.6,86.5c0.3,0,0.4,0.3,0.4,0.8c0,0.5-0.1,0.9-0.2,1c-0.1,0.2-0.3,0.2-0.4,0.2h-3.8l-6.8-8.8l5.9-5.9
						h3.1c0.3,0,0.5,0.3,0.6,0.8c0,0.1,0,0.3,0,0.4c0,0.6-0.1,0.9-0.4,0.9c-0.9,0-1.6,0.1-1.9,0.2c-0.3,0.1-0.6,0.3-0.7,0.4
						l-3.2,3.3l5.1,5.6C100.9,86.2,101.7,86.5,102.6,86.5z"/>
				</g>
				<path class="st4" d="M116.7,88.9c-2.1,0-3.7-0.7-4.8-2.2c-1.1-1.4-1.7-3.3-1.7-5.7c0-2.3,0.7-4.2,2.1-5.4s3.1-1.9,5.2-1.9h0
					c1.9,0,3.4,0.7,4.6,2.1c1.1,1.4,1.7,3.3,1.7,5.6s-0.7,4.2-2,5.5C120.6,88.2,118.8,88.9,116.7,88.9z M117.1,75.9
					c-1.7,0-2.9,0.9-3.5,2.6c-0.2,0.7-0.4,1.5-0.4,2.5c0,1.8,0.3,3.2,1,4.2c0.7,0.9,1.6,1.4,2.9,1.4c1.2,0,2.1-0.5,2.8-1.5
					c0.6-1,1-2.3,1-3.9c0-2.6-0.8-4.3-2.3-5C118.1,76,117.6,75.9,117.1,75.9z"/>
				<path class="st4" d="M138.8,88.9c-2.1,0-3.7-0.7-4.8-2.2c-1.1-1.4-1.7-3.3-1.7-5.7c0-2.3,0.7-4.2,2.1-5.4s3.2-1.9,5.2-1.9h0
					c1.9,0,3.4,0.7,4.6,2.1c1.1,1.4,1.7,3.3,1.7,5.6s-0.7,4.2-2,5.5C142.6,88.2,140.8,88.9,138.8,88.9z M139.1,75.9
					c-1.7,0-2.9,0.9-3.5,2.6c-0.2,0.7-0.4,1.5-0.4,2.5c0,1.8,0.3,3.2,1,4.2c0.7,0.9,1.6,1.4,2.9,1.4c1.2,0,2.1-0.5,2.8-1.5
					c0.6-1,1-2.3,1-3.9c0-2.6-0.8-4.3-2.3-5C140.1,76,139.6,75.9,139.1,75.9z"/>
				<g>
					<path class="st4" d="M163.8,73.6l0.4,0c0.2,0,0.4,0.1,0.7,0.2c0.3,0.2,0.6,0.4,0.8,0.7c0.3,0.3,0.4,0.7,0.4,1.3
						c0,0.6-0.2,1-0.6,1.4c-0.4,0.4-0.9,0.6-1.4,0.6c-0.5,0-1-0.2-1.3-0.6c-0.4-0.4-0.5-0.8-0.5-1.3c-0.6,0.3-1,0.6-1.3,0.9
						c-0.3,0.3-0.5,0.7-0.7,1l-0.6,1v7.7h3.6c0.2,0,0.3,0.3,0.3,0.8c0,0.5-0.1,0.9-0.2,1c-0.1,0.2-0.3,0.2-0.4,0.2h-8.5
						c-0.3,0-0.4-0.3-0.4-0.8c0-0.5,0.1-0.9,0.4-1.2c0.1-0.1,0.4-0.1,0.8-0.1c1,0,1.6-0.2,1.6-0.6v-9.7h-2.6c-0.4,0-0.6-0.3-0.6-0.9
						c0-0.6,0.1-1,0.4-1.1c0.5-0.2,1.2-0.4,2.1-0.4c0.9-0.1,1.5-0.1,1.7-0.1h0.7c0.4,0,0.6,0.1,0.6,0.2c0.1,0.2,0.1,0.4,0.1,0.9
						l0,0.6c0,0.1,0,0.2,0,0.4c0,0.1,0,0.2,0,0.3C160.9,74.4,162.5,73.6,163.8,73.6z"/>
				</g>
				<g>
					<path class="st4" d="M95.3,94.7H94c-1,0-1.9,0.4-2.6,1.2c-0.9,1-1.4,2.4-1.4,4.3c0,2.7,0.8,4.4,2.3,5.2
						c0.5,0.2,1.1,0.4,1.7,0.4c0.9,0,2.1-0.4,3.4-1.2l1-0.6c0,0,0.1,0,0.3,0s0.4,0.2,0.6,0.6c0.3,0.4,0.4,0.7,0.4,0.9
						c0,0.2-0.1,0.4-0.2,0.5c-1.9,1.4-3.9,2.1-6,2.1c-2.1,0-3.7-0.7-4.9-2.1c-1.1-1.4-1.7-3.3-1.7-5.6c0-2.4,0.7-4.2,2.1-5.5
						c1.4-1.3,3.1-2,5.3-2c2.1,0,3.6,0.5,4.5,1.4c0.3,0.4,0.5,0.8,0.5,1.4c0,0.6-0.2,1-0.6,1.4c-0.4,0.4-0.9,0.6-1.4,0.6
						c-0.6,0-1-0.2-1.4-0.6c-0.4-0.4-0.6-0.8-0.6-1.1C95.2,95.4,95.2,95,95.3,94.7z"/>
				</g>
				<path class="st4" d="M114,107.9c-2.1,0-3.7-0.7-4.8-2.2c-1.1-1.4-1.7-3.3-1.7-5.7c0-2.3,0.7-4.2,2.1-5.4s3.1-1.9,5.2-1.9h0
					c1.9,0,3.4,0.7,4.6,2.1c1.1,1.4,1.7,3.3,1.7,5.6s-0.7,4.2-2,5.5C117.8,107.2,116.1,107.9,114,107.9z M114.4,94.9
					c-1.7,0-2.9,0.9-3.5,2.6c-0.2,0.7-0.4,1.5-0.4,2.5c0,1.8,0.3,3.2,1,4.2c0.7,0.9,1.6,1.4,2.9,1.4c1.2,0,2.1-0.5,2.8-1.5
					c0.6-1,1-2.3,1-3.9c0-2.6-0.8-4.3-2.3-5C115.3,95,114.9,94.9,114.4,94.9z"/>
				<g>
					<path class="st4" d="M129.3,95.2c-0.4,0-0.6-0.4-0.6-1.1c0-0.5,0.1-0.7,0.4-0.8c0.5-0.2,1.3-0.4,2.2-0.5
						c0.9-0.1,1.5-0.1,1.7-0.1h0.4c0.4,0,0.7,0.1,0.8,0.2c0.1,0.1,0.2,0.6,0.2,1.4v0.3c1.5-0.8,2.8-1.4,4-1.7
						c0.4-0.1,0.9-0.1,1.5-0.1c0.6,0,1.2,0.1,1.8,0.4c0.6,0.3,1.1,0.6,1.4,1.1c0.6,0.9,0.9,2.2,0.9,4.1v7.3h2.3
						c0.3,0,0.4,0.3,0.4,0.8c0,0.5-0.1,0.9-0.2,1c-0.1,0.2-0.3,0.2-0.4,0.2h-6.7c-0.3,0-0.4-0.3-0.4-0.8c0-0.5,0.1-0.9,0.2-1
						c0.1-0.2,0.3-0.2,0.4-0.2c1,0,1.5-0.2,1.5-0.6v-4.4c0-1.9-0.1-3.1-0.3-3.7c-0.2-0.6-0.5-1-0.8-1.3c-0.3-0.2-0.8-0.4-1.4-0.4
						c-1.1,0-2.4,0.6-4,1.9v8.5h2.5c0.3,0,0.4,0.3,0.4,0.8c0,0.5-0.1,0.9-0.2,1c-0.1,0.2-0.3,0.2-0.4,0.2h-7.5
						c-0.3,0-0.4-0.3-0.4-0.8c0-0.5,0.1-0.9,0.2-1c0.1-0.2,0.3-0.2,0.3-0.2h0.2c1.1,0,1.8-0.1,1.9-0.3c0.1-0.1,0.1-0.2,0.1-0.3v-9.7
						H129.3z"/>
				</g>
				<g>
					<path class="st4" d="M154.2,95.2c-0.4,0-0.6-0.4-0.6-1.1c0-0.5,0.1-0.7,0.4-0.8c0.5-0.2,1.3-0.4,2.2-0.5
						c0.9-0.1,1.5-0.1,1.7-0.1h0.4c0.4,0,0.7,0.1,0.8,0.2c0.1,0.1,0.2,0.6,0.2,1.4v0.3c1.5-0.8,2.8-1.4,4-1.7
						c0.4-0.1,0.9-0.1,1.5-0.1c0.6,0,1.2,0.1,1.8,0.4c0.6,0.3,1.1,0.6,1.4,1.1c0.6,0.9,0.9,2.2,0.9,4.1v7.3h2.3
						c0.3,0,0.4,0.3,0.4,0.8c0,0.5-0.1,0.9-0.2,1c-0.1,0.2-0.3,0.2-0.4,0.2h-6.7c-0.3,0-0.4-0.3-0.4-0.8c0-0.5,0.1-0.9,0.2-1
						c0.1-0.2,0.3-0.2,0.4-0.2c1,0,1.5-0.2,1.5-0.6v-4.4c0-1.9-0.1-3.1-0.3-3.7c-0.2-0.6-0.5-1-0.8-1.3c-0.3-0.2-0.8-0.4-1.4-0.4
						c-1.1,0-2.4,0.6-4,1.9v8.5h2.5c0.3,0,0.4,0.3,0.4,0.8c0,0.5-0.1,0.9-0.2,1c-0.1,0.2-0.3,0.2-0.4,0.2h-7.5
						c-0.3,0-0.4-0.3-0.4-0.8c0-0.5,0.1-0.9,0.2-1c0.1-0.2,0.3-0.2,0.3-0.2h0.2c1.1,0,1.8-0.1,1.9-0.3c0.1-0.1,0.1-0.2,0.1-0.3v-9.7
						H154.2z"/>
				</g>
				<path class="st4" d="M185.8,107.9c-2.2,0-3.8-0.7-4.9-2.1c-1.1-1.4-1.7-3.3-1.7-5.7c0-2.4,0.7-4.2,2.1-5.5c1.4-1.3,3.1-2,5.1-2
					h0c1.8,0,3.2,0.6,4.2,1.7c1,1.1,1.5,2.8,1.5,4.9c0,0.5-0.2,0.9-0.6,1.2c-0.4,0.3-0.9,0.5-1.6,0.5h-7.7c0.2,2.3,1,3.8,2.4,4.4
					c0.4,0.2,0.9,0.3,1.4,0.3c0.5,0,1-0.1,1.6-0.2c0.6-0.2,1.2-0.5,1.9-0.9c0.7-0.5,1.1-0.7,1.3-0.7c0.1,0,0.2,0.1,0.4,0.2
					c0.1,0.1,0.3,0.3,0.5,0.6c0.2,0.3,0.3,0.5,0.3,0.8c0,0.3,0,0.4-0.2,0.5C189.9,107.2,188,107.9,185.8,107.9z M189.1,98.7
					c0-2.6-0.9-3.8-2.9-3.8c-1,0-1.9,0.3-2.7,1c-0.8,0.7-1.3,1.6-1.3,2.8H189.1z"/>
				<g>
					<path class="st4" d="M208.8,94.7h-1.4c-1,0-1.9,0.4-2.6,1.2c-0.9,1-1.4,2.4-1.4,4.3c0,2.7,0.8,4.4,2.3,5.2
						c0.5,0.2,1.1,0.4,1.7,0.4c0.9,0,2.1-0.4,3.4-1.2l1-0.6c0,0,0.1,0,0.3,0s0.4,0.2,0.6,0.6c0.3,0.4,0.4,0.7,0.4,0.9
						c0,0.2-0.1,0.4-0.2,0.5c-1.9,1.4-3.9,2.1-6,2.1c-2.1,0-3.7-0.7-4.9-2.1c-1.1-1.4-1.7-3.3-1.7-5.6c0-2.4,0.7-4.2,2.1-5.5
						c1.4-1.3,3.1-2,5.3-2c2.1,0,3.6,0.5,4.5,1.4c0.3,0.4,0.5,0.8,0.5,1.4c0,0.6-0.2,1-0.6,1.4c-0.4,0.4-0.9,0.6-1.4,0.6
						c-0.6,0-1-0.2-1.4-0.6c-0.4-0.4-0.6-0.8-0.6-1.1C208.7,95.4,208.7,95,208.8,94.7z"/>
				</g>
				<g>
					<path class="st4" d="M220.3,95.2c0-1.5,0.2-2.3,0.5-2.3h0.2c1.5,0,2.3-0.2,2.3-0.6l0.6-3.2c0.1-0.5,0.8-0.8,1.9-0.8v4.7h4
						c0.2,0,0.4,0.3,0.4,0.9c0,0.6-0.1,1-0.4,1.3c-0.1,0.1-0.2,0.1-0.3,0.1H226v8.6c0,1.1,0.3,1.6,1,1.6c0.7,0,1.3-0.1,1.6-0.2
						c0.3-0.1,0.5-0.2,0.7-0.2c0.2,0,0.3,0.1,0.5,0.4c0.2,0.3,0.3,0.5,0.3,0.8c0,0.3-0.1,0.5-0.3,0.6c-1.3,0.7-2.5,1-3.6,1
						c-2,0-3-1.4-3-4.1v-8.6H220.3z"/>
				</g>
				<g>
					<path class="st4" d="M237.7,95.2c-0.4,0-0.6-0.4-0.6-1.2c0-0.5,0.1-0.7,0.4-0.8c0.9-0.3,2.5-0.5,5-0.5h0c0.4,0,0.6,0.4,0.6,1.2
						v11.6h2.5c0.3,0,0.4,0.3,0.4,0.8c0,0.5-0.1,0.9-0.2,1c-0.1,0.2-0.3,0.2-0.4,0.2h-7.5c-0.3,0-0.4-0.3-0.4-0.8
						c0-0.5,0.1-0.9,0.2-1c0.1-0.2,0.3-0.2,0.3-0.2h0.2c1.1,0,1.8-0.1,1.9-0.3c0.1-0.1,0.1-0.2,0.1-0.3v-9.7H237.7z"/>
					<path class="st4" d="M241.4,89c-0.9,0-1.5-0.4-1.9-1.2c-0.1-0.2-0.1-0.5-0.1-0.8c0-0.9,0.4-1.6,1.2-1.9
						c0.2-0.1,0.5-0.1,0.8-0.1c0.6,0,1,0.2,1.4,0.6c0.4,0.4,0.6,0.9,0.6,1.5c0,0.6-0.2,1.1-0.6,1.4C242.5,88.8,242,89,241.4,89z"/>
				</g>
				<path class="st4" d="M259.9,107.9c-2.1,0-3.7-0.7-4.8-2.2c-1.1-1.4-1.7-3.3-1.7-5.7c0-2.3,0.7-4.2,2.1-5.4
					c1.4-1.3,3.1-1.9,5.2-1.9h0c1.9,0,3.4,0.7,4.6,2.1c1.1,1.4,1.7,3.3,1.7,5.6s-0.7,4.2-2,5.5C263.7,107.2,262,107.9,259.9,107.9z
					 M260.3,94.9c-1.7,0-2.9,0.9-3.5,2.6c-0.2,0.7-0.4,1.5-0.4,2.5c0,1.8,0.3,3.2,1,4.2c0.7,0.9,1.6,1.4,2.9,1.4
					c1.2,0,2.1-0.5,2.8-1.5s1-2.3,1-3.9c0-2.6-0.8-4.3-2.3-5C261.2,95,260.8,94.9,260.3,94.9z"/>
				<g>
					<path class="st4" d="M275.2,95.2c-0.4,0-0.6-0.4-0.6-1.1c0-0.5,0.1-0.7,0.4-0.8c0.5-0.2,1.3-0.4,2.2-0.5
						c0.9-0.1,1.5-0.1,1.7-0.1h0.4c0.4,0,0.7,0.1,0.8,0.2c0.1,0.1,0.2,0.6,0.2,1.4v0.3c1.5-0.8,2.8-1.4,4-1.7
						c0.4-0.1,0.9-0.1,1.5-0.1c0.6,0,1.2,0.1,1.8,0.4c0.6,0.3,1.1,0.6,1.4,1.1c0.6,0.9,0.9,2.2,0.9,4.1v7.3h2.3
						c0.3,0,0.4,0.3,0.4,0.8c0,0.5-0.1,0.9-0.2,1c-0.1,0.2-0.3,0.2-0.4,0.2h-6.7c-0.3,0-0.4-0.3-0.4-0.8c0-0.5,0.1-0.9,0.2-1
						c0.1-0.2,0.3-0.2,0.4-0.2c1,0,1.5-0.2,1.5-0.6v-4.4c0-1.9-0.1-3.1-0.3-3.7c-0.2-0.6-0.5-1-0.8-1.3c-0.3-0.2-0.8-0.4-1.4-0.4
						c-1.1,0-2.4,0.6-4,1.9v8.5h2.5c0.3,0,0.4,0.3,0.4,0.8c0,0.5-0.1,0.9-0.2,1c-0.1,0.2-0.3,0.2-0.4,0.2h-7.5
						c-0.3,0-0.4-0.3-0.4-0.8c0-0.5,0.1-0.9,0.2-1c0.1-0.2,0.3-0.2,0.3-0.2h0.2c1.1,0,1.8-0.1,1.9-0.3c0.1-0.1,0.1-0.2,0.1-0.3v-9.7
						H275.2z"/>
				</g>
			</g>
		</g>
	</g>
	<path class="st5" d="M295,14.2c0,0-209.7,0-209.8,0c0.8,0,0.2,12.7,0.2,13.7c-0.2,7.6-1.9,15.1-2.9,22.7c-2,14.2-1.1,28.7-0.5,43
		c0.2,5.1,0.4,10.1,0.7,15.2H295V14.2z"/>
	<path class="st6" d="M65.3,78.2c-0.5,1.8-1.2,3.4-2.2,5c-3.7,6-14.9,10.4-21.6,11.8c-0.2,0-3.2,0.4-3.2,0.7l1,33.9
		c0,0-9.2,1.6-13.9,0.9c-4.6-0.7-7.4,1.2-14.3,2.1c-6.9,0.9,3-4.6,3.2-8c0.2-3.5,0.3-29.4,1-37c0.6-7.1-1.5-33.6-0.2-44.5
		c0.7-6.2,0-29.2,0.5-34.8c0.5-5.5-5.4-4.9-1.7-4.6c3.7,0.2,40-1.8,40-1.8s0.2,7.2,0.2,10.1c0,3-1.5,13.6-3.6,16.8
		C46.4,35,41.2,41,36.2,46.5c-2.9,3.2-6.1,6.2-7.1,10.5C28,62,29.7,68,32.8,71.8c2,2.5,4.7,4.6,7.6,5.8c0.8,0.3,1.7,0.6,2.6,0.8
		c2.6,0.6,9.2,0.4,11.7-0.8c0.9-0.4,1.8-1,2.5-1.7c0.9-0.9,1.7-2,2.3-3.2c3.2-6.3,0.4-14-6.1-16.7c-4.6-1.9-10.2,0.3-11.3,5.4
		c-0.6,2.7,0.7,5,2.3,7.1c0.5-1.9,1.1-4,3.1-4.8c2.1-0.8,4.6,0.3,6,1.9c3.9,4.4-1.1,9.9-6.1,9.5c-3.9-0.3-6.9-3.7-8.1-7.2
		c-0.7-2.1-1.3-4.3-0.7-6.5c0.3-1.3,0.9-2.6,1.5-3.9c0.3-0.6,0.6-1.1,1-1.7c1.6-2.2,4-3.7,6.6-4.2c5.8-1.1,11.7,1.7,14.8,6.7
		C66,63.9,67.2,71.6,65.3,78.2z"/>
</g>
</svg>
