<svg id="Layer_1" xmlns="http://www.w3.org/2000/svg" viewBox="0 0 278 102.9"><style>.st0{fill:#AD9B89;} .st1{opacity:0.75;} .st2{fill:#293770;}</style><path class="st0" d="M36.7 84.6c-.6.1-6.8 1.1-6.9 1.6v11.7l.1 5h32c.5-8.1.8-16.2.6-19.3-.5-6.8.8-24.5.8-32.7 0-8.2 4.1-34.5 3.3-43-.1-1 1-8.1-.6-7.9-1.2.1-3.2 5-3.7 5.9-2 3.4-4.9 6.3-7.8 9-2.1 2-4.4 3.6-6.7 5.2-8.4 5.6-17.1 10.9-23.9 18.5-1.8 1.9-4.1 4.6-3.8 7.4 1.9-2.2 3.9-4.3 6.5-5.8 7-4 15.2-5.4 21.7-.4 8.5 6.3 8.5 20 5.6 29.1-2.6 8.3-8.8 13.7-17.2 15.7z"/><g class="st1"><path class="st0" d="M70.6 56.1c-.4 0-.6-.4-.6-1.2 0-.5.1-.7.4-.8.9-.3 2.5-.5 5-.5.4 0 .6.4.6 1.2V74.7h1.5c.3 0 .4.3.4.8s-.1.9-.2 1c-.2.2-.3.2-.4.2h-6.6c-.3 0-.4-.3-.4-.8s.1-.9.2-1c.1-.2.3-.2.3-.2h.2c1.1 0 1.8-.1 1.9-.3.1-.1.1-.2.1-.3v-18h-2.4z"/><path class="st0" d="M87 74.7c.3 0 .4.3.4.8s-.1.9-.2 1c-.1.2-.3.2-.4.2H83l-6.8-8.8 5.9-5.9h3.1c.3 0 .5.3.6.8v.4c0 .6-.1.9-.4.9-.9 0-1.6.1-1.9.2s-.6.3-.7.4L79.6 68l5.1 5.6c.6.8 1.4 1.1 2.3 1.1zM101.1 77.1c-2.1 0-3.7-.7-4.8-2.2-1.1-1.4-1.7-3.3-1.7-5.7 0-2.3.7-4.2 2.1-5.4 1.4-1.2 3.1-1.9 5.2-1.9 1.9 0 3.4.7 4.6 2.1 1.1 1.4 1.7 3.3 1.7 5.6s-.7 4.2-2 5.5c-1.2 1.3-3 2-5.1 2zm.4-13c-1.7 0-2.9.9-3.5 2.6-.2.7-.4 1.5-.4 2.5 0 1.8.3 3.2 1 4.2.7.9 1.6 1.4 2.9 1.4 1.2 0 2.1-.5 2.8-1.5.6-1 1-2.3 1-3.9 0-2.6-.8-4.3-2.3-5-.5-.2-1-.3-1.5-.3zM123.2 77.1c-2.1 0-3.7-.7-4.8-2.2-1.1-1.4-1.7-3.3-1.7-5.7 0-2.3.7-4.2 2.1-5.4 1.4-1.2 3.2-1.9 5.2-1.9 1.9 0 3.4.7 4.6 2.1 1.1 1.4 1.7 3.3 1.7 5.6s-.7 4.2-2 5.5c-1.3 1.3-3.1 2-5.1 2zm.3-13c-1.7 0-2.9.9-3.5 2.6-.2.7-.4 1.5-.4 2.5 0 1.8.3 3.2 1 4.2.7.9 1.6 1.4 2.9 1.4 1.2 0 2.1-.5 2.8-1.5.6-1 1-2.3 1-3.9 0-2.6-.8-4.3-2.3-5-.5-.2-1-.3-1.5-.3zM148.2 61.8h.4c.2 0 .4.1.7.2.3.2.6.4.8.7.3.3.4.7.4 1.3 0 .6-.2 1-.6 1.4-.4.4-.9.6-1.4.6s-1-.2-1.3-.6c-.4-.4-.5-.8-.5-1.3-.6.3-1 .6-1.3.9s-.5.7-.7 1l-.6 1v7.7h3.6c.2 0 .3.3.3.8s-.1.9-.2 1c-.1.2-.3.2-.4.2h-8.5c-.3 0-.4-.3-.4-.8s.1-.9.4-1.2c.1-.1.4-.1.8-.1 1 0 1.6-.2 1.6-.6v-9.7h-2.6c-.4 0-.6-.3-.6-.9 0-.6.1-1 .4-1.1.5-.2 1.2-.4 2.1-.4.9-.1 1.5-.1 1.7-.1h.7c.4 0 .6.1.6.2.1.2.1.4.1.9v1.3c1.6-1.6 3.2-2.4 4.5-2.4zM79.7 82.9h-1.3c-1 0-1.9.4-2.6 1.2-.9 1-1.4 2.4-1.4 4.3 0 2.7.8 4.4 2.3 5.2.5.2 1.1.4 1.7.4.9 0 2.1-.4 3.4-1.2l1-.6h.3s.4.2.6.6c.3.4.4.7.4.9 0 .2-.1.4-.2.5-1.9 1.4-3.9 2.1-6 2.1s-3.7-.7-4.9-2.1c-1.1-1.4-1.7-3.3-1.7-5.6 0-2.4.7-4.2 2.1-5.5s3.1-2 5.3-2c2.1 0 3.6.5 4.5 1.4.3.4.5.8.5 1.4s-.2 1-.6 1.4-.9.6-1.4.6c-.6 0-1-.2-1.4-.6s-.6-.8-.6-1.1c-.1-.6-.1-1 0-1.3zM98.4 96.1c-2.1 0-3.7-.7-4.8-2.2-1.1-1.4-1.7-3.3-1.7-5.7 0-2.3.7-4.2 2.1-5.4s3.1-1.9 5.2-1.9c1.9 0 3.4.7 4.6 2.1 1.1 1.4 1.7 3.3 1.7 5.6s-.7 4.2-2 5.5c-1.3 1.3-3 2-5.1 2zm.4-13c-1.7 0-2.9.9-3.5 2.6-.2.7-.4 1.5-.4 2.5 0 1.8.3 3.2 1 4.2.7.9 1.6 1.4 2.9 1.4 1.2 0 2.1-.5 2.8-1.5.6-1 1-2.3 1-3.9 0-2.6-.8-4.3-2.3-5-.6-.2-1-.3-1.5-.3zM113.7 83.4c-.4 0-.6-.4-.6-1.1 0-.5.1-.7.4-.8.5-.2 1.3-.4 2.2-.5s1.5-.1 1.7-.1h.4c.4 0 .7.1.8.2s.2.6.2 1.4v.3c1.5-.8 2.8-1.4 4-1.7.4-.1.9-.1 1.5-.1s1.2.1 1.8.4 1.1.6 1.4 1.1c.6.9.9 2.2.9 4.1v7.3h2.3c.3 0 .4.3.4.8s-.1.9-.2 1c-.1.2-.3.2-.4.2h-6.7c-.3 0-.4-.3-.4-.8s.1-.9.2-1c.1-.2.3-.2.4-.2 1 0 1.5-.2 1.5-.6v-4.4c0-1.9-.1-3.1-.3-3.7s-.5-1-.8-1.3c-.3-.2-.8-.4-1.4-.4-1.1 0-2.4.6-4 1.9v8.5h2.5c.3 0 .4.3.4.8s-.1.9-.2 1c-.1.2-.3.2-.4.2h-7.5c-.3 0-.4-.3-.4-.8s.1-.9.2-1c.1-.2.3-.2.3-.2h.2c1.1 0 1.8-.1 1.9-.3.1-.1.1-.2.1-.3v-9.7h-2.4v-.2zM138.6 83.4c-.4 0-.6-.4-.6-1.1 0-.5.1-.7.4-.8.5-.2 1.3-.4 2.2-.5s1.5-.1 1.7-.1h.4c.4 0 .7.1.8.2s.2.6.2 1.4v.3c1.5-.8 2.8-1.4 4-1.7.4-.1.9-.1 1.5-.1s1.2.1 1.8.4 1.1.6 1.4 1.1c.6.9.9 2.2.9 4.1v7.3h2.3c.3 0 .4.3.4.8s-.1.9-.2 1c-.1.2-.3.2-.4.2h-6.7c-.3 0-.4-.3-.4-.8s.1-.9.2-1c.1-.2.3-.2.4-.2 1 0 1.5-.2 1.5-.6v-4.4c0-1.9-.1-3.1-.3-3.7s-.5-1-.8-1.3c-.3-.2-.8-.4-1.4-.4-1.1 0-2.4.6-4 1.9v8.5h2.5c.3 0 .4.3.4.8s-.1.9-.2 1c-.1.2-.3.2-.4.2h-7.5c-.3 0-.4-.3-.4-.8s.1-.9.2-1c.1-.2.3-.2.3-.2h.2c1.1 0 1.8-.1 1.9-.3.1-.1.1-.2.1-.3v-9.7h-2.4v-.2zM170.2 96.1c-2.2 0-3.8-.7-4.9-2.1-1.1-1.4-1.7-3.3-1.7-5.7 0-2.4.7-4.2 2.1-5.5 1.4-1.3 3.1-2 5.1-2 1.8 0 3.2.6 4.2 1.7s1.5 2.8 1.5 4.9c0 .5-.2.9-.6 1.2-.4.3-.9.5-1.6.5h-7.7c.2 2.3 1 3.8 2.4 4.4.4.2.9.3 1.4.3s1-.1 1.6-.2c.6-.2 1.2-.5 1.9-.9.7-.5 1.1-.7 1.3-.7.1 0 .2.1.4.2.1.1.3.3.5.6s.3.5.3.8 0 .4-.2.5c-1.9 1.3-3.8 2-6 2zm3.3-9.2c0-2.6-.9-3.8-2.9-3.8-1 0-1.9.3-2.7 1s-1.3 1.6-1.3 2.8h6.9zM193.2 82.9h-1.4c-1 0-1.9.4-2.6 1.2-.9 1-1.4 2.4-1.4 4.3 0 2.7.8 4.4 2.3 5.2.5.2 1.1.4 1.7.4.9 0 2.1-.4 3.4-1.2l1-.6h.3s.4.2.6.6c.3.4.4.7.4.9 0 .2-.1.4-.2.5-1.9 1.4-3.9 2.1-6 2.1s-3.7-.7-4.9-2.1c-1.1-1.4-1.7-3.3-1.7-5.6 0-2.4.7-4.2 2.1-5.5 1.4-1.3 3.1-2 5.3-2 2.1 0 3.6.5 4.5 1.4.3.4.5.8.5 1.4s-.2 1-.6 1.4c-.4.4-.9.6-1.4.6-.6 0-1-.2-1.4-.6s-.6-.8-.6-1.1c0-.6 0-1 .1-1.3zM204.7 83.4c0-1.5.2-2.3.5-2.3h.2c1.5 0 2.3-.2 2.3-.6l.6-3.2c.1-.5.8-.8 1.9-.8v4.7h4c.2 0 .4.3.4.9s-.1 1-.4 1.3c-.1.1-.2.1-.3.1h-3.5v8.6c0 1.1.3 1.6 1 1.6s1.3-.1 1.6-.2.5-.2.7-.2.3.1.5.4.3.5.3.8-.1.5-.3.6c-1.3.7-2.5 1-3.6 1-2 0-3-1.4-3-4.1v-8.6h-2.9zM222.1 83.4c-.4 0-.6-.4-.6-1.2 0-.5.1-.7.4-.8.9-.3 2.5-.5 5-.5.4 0 .6.4.6 1.2v11.6h2.5c.3 0 .4.3.4.8s-.1.9-.2 1c-.1.2-.3.2-.4.2h-7.5c-.3 0-.4-.3-.4-.8s.1-.9.2-1c.1-.2.3-.2.3-.2h.2c1.1 0 1.8-.1 1.9-.3.1-.1.1-.2.1-.3v-9.7h-2.5zM225.8 77.2c-.9 0-1.5-.4-1.9-1.2-.1-.2-.1-.5-.1-.8 0-.9.4-1.6 1.2-1.9.2-.1.5-.1.8-.1.6 0 1 .2 1.4.6s.6.9.6 1.5-.2 1.1-.6 1.4c-.3.3-.8.5-1.4.5zM244.3 96.1c-2.1 0-3.7-.7-4.8-2.2-1.1-1.4-1.7-3.3-1.7-5.7 0-2.3.7-4.2 2.1-5.4s3.1-1.9 5.2-1.9c1.9 0 3.4.7 4.6 2.1 1.1 1.4 1.7 3.3 1.7 5.6s-.7 4.2-2 5.5c-1.3 1.3-3 2-5.1 2zm.4-13c-1.7 0-2.9.9-3.5 2.6-.2.7-.4 1.5-.4 2.5 0 1.8.3 3.2 1 4.2.7.9 1.6 1.4 2.9 1.4 1.2 0 2.1-.5 2.8-1.5s1-2.3 1-3.9c0-2.6-.8-4.3-2.3-5-.6-.2-1-.3-1.5-.3zM259.6 83.4c-.4 0-.6-.4-.6-1.1 0-.5.1-.7.4-.8.5-.2 1.3-.4 2.2-.5.9-.1 1.5-.1 1.7-.1h.4c.4 0 .7.1.8.2.1.1.2.6.2 1.4v.3c1.5-.8 2.8-1.4 4-1.7.4-.1.9-.1 1.5-.1s1.2.1 1.8.4c.6.3 1.1.6 1.4 1.1.6.9.9 2.2.9 4.1v7.3h2.3c.3 0 .4.3.4.8s-.1.9-.2 1c-.1.2-.3.2-.4.2h-6.7c-.3 0-.4-.3-.4-.8s.1-.9.2-1c.1-.2.3-.2.4-.2 1 0 1.5-.2 1.5-.6v-4.4c0-1.9-.1-3.1-.3-3.7-.2-.6-.5-1-.8-1.3-.3-.2-.8-.4-1.4-.4-1.1 0-2.4.6-4 1.9v8.5h2.5c.3 0 .4.3.4.8s-.1.9-.2 1c-.1.2-.3.2-.4.2h-7.5c-.3 0-.4-.3-.4-.8s.1-.9.2-1c.1-.2.3-.2.3-.2h.2c1.1 0 1.8-.1 1.9-.3.1-.1.1-.2.1-.3v-9.7h-2.4v-.2z"/></g><path class="st2" d="M71.6 57.1c-.4 0-.6-.4-.6-1.2 0-.5.1-.7.4-.8.9-.3 2.5-.5 5-.5.4 0 .6.4.6 1.2V75.7h1.5c.3 0 .4.3.4.8s-.1.9-.2 1c-.2.2-.3.2-.4.2h-6.6c-.3 0-.4-.3-.4-.8s.1-.9.2-1c.1-.2.3-.2.3-.2h.2c1.1 0 1.8-.1 1.9-.3.1-.1.1-.2.1-.3v-18h-2.4z"/><path class="st2" d="M88 75.7c.3 0 .4.3.4.8s-.1.9-.2 1c-.1.2-.3.2-.4.2H84l-6.8-8.8 5.9-5.9h3.1c.3 0 .5.3.6.8v.4c0 .6-.1.9-.4.9-.9 0-1.6.1-1.9.2s-.6.3-.7.4L80.6 69l5.1 5.6c.6.8 1.4 1.1 2.3 1.1zM102.1 78.1c-2.1 0-3.7-.7-4.8-2.2-1.1-1.4-1.7-3.3-1.7-5.7 0-2.3.7-4.2 2.1-5.4 1.4-1.2 3.1-1.9 5.2-1.9 1.9 0 3.4.7 4.6 2.1 1.1 1.4 1.7 3.3 1.7 5.6s-.7 4.2-2 5.5c-1.2 1.3-3 2-5.1 2zm.4-13c-1.7 0-2.9.9-3.5 2.6-.2.7-.4 1.5-.4 2.5 0 1.8.3 3.2 1 4.2.7.9 1.6 1.4 2.9 1.4 1.2 0 2.1-.5 2.8-1.5.6-1 1-2.3 1-3.9 0-2.6-.8-4.3-2.3-5-.5-.2-1-.3-1.5-.3zM124.2 78.1c-2.1 0-3.7-.7-4.8-2.2-1.1-1.4-1.7-3.3-1.7-5.7 0-2.3.7-4.2 2.1-5.4 1.4-1.2 3.2-1.9 5.2-1.9 1.9 0 3.4.7 4.6 2.1 1.1 1.4 1.7 3.3 1.7 5.6s-.7 4.2-2 5.5c-1.3 1.3-3.1 2-5.1 2zm.3-13c-1.7 0-2.9.9-3.5 2.6-.2.7-.4 1.5-.4 2.5 0 1.8.3 3.2 1 4.2.7.9 1.6 1.4 2.9 1.4 1.2 0 2.1-.5 2.8-1.5.6-1 1-2.3 1-3.9 0-2.6-.8-4.3-2.3-5-.5-.2-1-.3-1.5-.3zM149.2 62.8h.4c.2 0 .4.1.7.2.3.2.6.4.8.7.3.3.4.7.4 1.3 0 .6-.2 1-.6 1.4-.4.4-.9.6-1.4.6s-1-.2-1.3-.6c-.4-.4-.5-.8-.5-1.3-.6.3-1 .6-1.3.9s-.5.7-.7 1l-.6 1v7.7h3.6c.2 0 .3.3.3.8s-.1.9-.2 1c-.1.2-.3.2-.4.2h-8.5c-.3 0-.4-.3-.4-.8s.1-.9.4-1.2c.1-.1.4-.1.8-.1 1 0 1.6-.2 1.6-.6v-9.7h-2.6c-.4 0-.6-.3-.6-.9 0-.6.1-1 .4-1.1.5-.2 1.2-.4 2.1-.4.9-.1 1.5-.1 1.7-.1h.7c.4 0 .6.1.6.2.1.2.1.4.1.9v1.3c1.6-1.6 3.2-2.4 4.5-2.4zM80.7 83.9h-1.3c-1 0-1.9.4-2.6 1.2-.9 1-1.4 2.4-1.4 4.3 0 2.7.8 4.4 2.3 5.2.5.2 1.1.4 1.7.4.9 0 2.1-.4 3.4-1.2l1-.6h.3s.4.2.6.6c.3.4.4.7.4.9 0 .2-.1.4-.2.5-1.9 1.4-3.9 2.1-6 2.1s-3.7-.7-4.9-2.1c-1.1-1.4-1.7-3.3-1.7-5.6 0-2.4.7-4.2 2.1-5.5s3.1-2 5.3-2c2.1 0 3.6.5 4.5 1.4.3.4.5.8.5 1.4s-.2 1-.6 1.4-.9.6-1.4.6c-.6 0-1-.2-1.4-.6s-.6-.8-.6-1.1c-.1-.6-.1-1 0-1.3zM99.4 97.1c-2.1 0-3.7-.7-4.8-2.2-1.1-1.4-1.7-3.3-1.7-5.7 0-2.3.7-4.2 2.1-5.4s3.1-1.9 5.2-1.9c1.9 0 3.4.7 4.6 2.1 1.1 1.4 1.7 3.3 1.7 5.6s-.7 4.2-2 5.5c-1.3 1.3-3 2-5.1 2zm.4-13c-1.7 0-2.9.9-3.5 2.6-.2.7-.4 1.5-.4 2.5 0 1.8.3 3.2 1 4.2.7.9 1.6 1.4 2.9 1.4 1.2 0 2.1-.5 2.8-1.5.6-1 1-2.3 1-3.9 0-2.6-.8-4.3-2.3-5-.6-.2-1-.3-1.5-.3zM114.7 84.4c-.4 0-.6-.4-.6-1.1 0-.5.1-.7.4-.8.5-.2 1.3-.4 2.2-.5s1.5-.1 1.7-.1h.4c.4 0 .7.1.8.2s.2.6.2 1.4v.3c1.5-.8 2.8-1.4 4-1.7.4-.1.9-.1 1.5-.1s1.2.1 1.8.4 1.1.6 1.4 1.1c.6.9.9 2.2.9 4.1v7.3h2.3c.3 0 .4.3.4.8s-.1.9-.2 1c-.1.2-.3.2-.4.2h-6.7c-.3 0-.4-.3-.4-.8s.1-.9.2-1c.1-.2.3-.2.4-.2 1 0 1.5-.2 1.5-.6v-4.4c0-1.9-.1-3.1-.3-3.7s-.5-1-.8-1.3c-.3-.2-.8-.4-1.4-.4-1.1 0-2.4.6-4 1.9v8.5h2.5c.3 0 .4.3.4.8s-.1.9-.2 1c-.1.2-.3.2-.4.2h-7.5c-.3 0-.4-.3-.4-.8s.1-.9.2-1c.1-.2.3-.2.3-.2h.2c1.1 0 1.8-.1 1.9-.3.1-.1.1-.2.1-.3v-9.7h-2.4v-.2zM139.6 84.4c-.4 0-.6-.4-.6-1.1 0-.5.1-.7.4-.8.5-.2 1.3-.4 2.2-.5s1.5-.1 1.7-.1h.4c.4 0 .7.1.8.2s.2.6.2 1.4v.3c1.5-.8 2.8-1.4 4-1.7.4-.1.9-.1 1.5-.1s1.2.1 1.8.4 1.1.6 1.4 1.1c.6.9.9 2.2.9 4.1v7.3h2.3c.3 0 .4.3.4.8s-.1.9-.2 1c-.1.2-.3.2-.4.2h-6.7c-.3 0-.4-.3-.4-.8s.1-.9.2-1c.1-.2.3-.2.4-.2 1 0 1.5-.2 1.5-.6v-4.4c0-1.9-.1-3.1-.3-3.7s-.5-1-.8-1.3c-.3-.2-.8-.4-1.4-.4-1.1 0-2.4.6-4 1.9v8.5h2.5c.3 0 .4.3.4.8s-.1.9-.2 1c-.1.2-.3.2-.4.2h-7.5c-.3 0-.4-.3-.4-.8s.1-.9.2-1c.1-.2.3-.2.3-.2h.2c1.1 0 1.8-.1 1.9-.3.1-.1.1-.2.1-.3v-9.7h-2.4v-.2zM171.2 97.1c-2.2 0-3.8-.7-4.9-2.1-1.1-1.4-1.7-3.3-1.7-5.7 0-2.4.7-4.2 2.1-5.5 1.4-1.3 3.1-2 5.1-2 1.8 0 3.2.6 4.2 1.7s1.5 2.8 1.5 4.9c0 .5-.2.9-.6 1.2-.4.3-.9.5-1.6.5h-7.7c.2 2.3 1 3.8 2.4 4.4.4.2.9.3 1.4.3s1-.1 1.6-.2c.6-.2 1.2-.5 1.9-.9.7-.5 1.1-.7 1.3-.7.1 0 .2.1.4.2.1.1.3.3.5.6s.3.5.3.8 0 .4-.2.5c-1.9 1.3-3.8 2-6 2zm3.3-9.2c0-2.6-.9-3.8-2.9-3.8-1 0-1.9.3-2.7 1s-1.3 1.6-1.3 2.8h6.9zM194.2 83.9h-1.4c-1 0-1.9.4-2.6 1.2-.9 1-1.4 2.4-1.4 4.3 0 2.7.8 4.4 2.3 5.2.5.2 1.1.4 1.7.4.9 0 2.1-.4 3.4-1.2l1-.6h.3s.4.2.6.6c.3.4.4.7.4.9 0 .2-.1.4-.2.5-1.9 1.4-3.9 2.1-6 2.1s-3.7-.7-4.9-2.1c-1.1-1.4-1.7-3.3-1.7-5.6 0-2.4.7-4.2 2.1-5.5 1.4-1.3 3.1-2 5.3-2 2.1 0 3.6.5 4.5 1.4.3.4.5.8.5 1.4s-.2 1-.6 1.4c-.4.4-.9.6-1.4.6-.6 0-1-.2-1.4-.6s-.6-.8-.6-1.1c0-.6 0-1 .1-1.3zM205.7 84.4c0-1.5.2-2.3.5-2.3h.2c1.5 0 2.3-.2 2.3-.6l.6-3.2c.1-.5.8-.8 1.9-.8v4.7h4c.2 0 .4.3.4.9s-.1 1-.4 1.3c-.1.1-.2.1-.3.1h-3.5v8.6c0 1.1.3 1.6 1 1.6s1.3-.1 1.6-.2.5-.2.7-.2.3.1.5.4.3.5.3.8-.1.5-.3.6c-1.3.7-2.5 1-3.6 1-2 0-3-1.4-3-4.1v-8.6h-2.9zM223.1 84.4c-.4 0-.6-.4-.6-1.2 0-.5.1-.7.4-.8.9-.3 2.5-.5 5-.5.4 0 .6.4.6 1.2v11.6h2.5c.3 0 .4.3.4.8s-.1.9-.2 1c-.1.2-.3.2-.4.2h-7.5c-.3 0-.4-.3-.4-.8s.1-.9.2-1c.1-.2.3-.2.3-.2h.2c1.1 0 1.8-.1 1.9-.3.1-.1.1-.2.1-.3v-9.7h-2.5zM226.8 78.2c-.9 0-1.5-.4-1.9-1.2-.1-.2-.1-.5-.1-.8 0-.9.4-1.6 1.2-1.9.2-.1.5-.1.8-.1.6 0 1 .2 1.4.6s.6.9.6 1.5-.2 1.1-.6 1.4c-.3.3-.8.5-1.4.5zM245.3 97.1c-2.1 0-3.7-.7-4.8-2.2-1.1-1.4-1.7-3.3-1.7-5.7 0-2.3.7-4.2 2.1-5.4 1.4-1.3 3.1-1.9 5.2-1.9 1.9 0 3.4.7 4.6 2.1 1.1 1.4 1.7 3.3 1.7 5.6s-.7 4.2-2 5.5c-1.3 1.3-3 2-5.1 2zm.4-13c-1.7 0-2.9.9-3.5 2.6-.2.7-.4 1.5-.4 2.5 0 1.8.3 3.2 1 4.2.7.9 1.6 1.4 2.9 1.4 1.2 0 2.1-.5 2.8-1.5s1-2.3 1-3.9c0-2.6-.8-4.3-2.3-5-.6-.2-1-.3-1.5-.3z"/><g><path class="st2" d="M260.6 84.4c-.4 0-.6-.4-.6-1.1 0-.5.1-.7.4-.8.5-.2 1.3-.4 2.2-.5.9-.1 1.5-.1 1.7-.1h.4c.4 0 .7.1.8.2.1.1.2.6.2 1.4v.3c1.5-.8 2.8-1.4 4-1.7.4-.1.9-.1 1.5-.1s1.2.1 1.8.4c.6.3 1.1.6 1.4 1.1.6.9.9 2.2.9 4.1v7.3h2.3c.3 0 .4.3.4.8s-.1.9-.2 1c-.1.2-.3.2-.4.2h-6.7c-.3 0-.4-.3-.4-.8s.1-.9.2-1c.1-.2.3-.2.4-.2 1 0 1.5-.2 1.5-.6v-4.4c0-1.9-.1-3.1-.3-3.7-.2-.6-.5-1-.8-1.3-.3-.2-.8-.4-1.4-.4-1.1 0-2.4.6-4 1.9v8.5h2.5c.3 0 .4.3.4.8s-.1.9-.2 1c-.1.2-.3.2-.4.2h-7.5c-.3 0-.4-.3-.4-.8s.1-.9.2-1c.1-.2.3-.2.3-.2h.2c1.1 0 1.8-.1 1.9-.3.1-.1.1-.2.1-.3v-9.7h-2.4v-.2z"/></g><path class="st2" d="M26.9 84.2c6.7-1.4 17.9-5.8 21.6-11.8 1-1.6 1.7-3.2 2.2-5 1.9-6.6.7-14.3-2.8-19.9-3.1-5-9-7.8-14.8-6.7-2.6.5-5 2-6.6 4.2-.4.6-.7 1.1-1 1.7-.6 1.3-1.2 2.6-1.5 3.9-.6 2.2 0 4.4.7 6.5 1.2 3.5 4.2 6.9 8.1 7.2 5 .4 10-5.1 6.1-9.5-1.4-1.6-3.9-2.7-6-1.9-2 .8-2.6 2.9-3.1 4.8-1.6-2.1-2.9-4.4-2.3-7.1 1.1-5.1 6.7-7.3 11.3-5.4 6.5 2.7 9.3 10.4 6.1 16.7-.6 1.2-1.4 2.3-2.3 3.2-.7.7-1.6 1.3-2.5 1.7-2.5 1.2-9.1 1.4-11.7.8-.9-.2-1.8-.5-2.6-.8-2.9-1.2-5.6-3.3-7.6-5.8-3.1-3.8-4.8-9.8-3.7-14.8 1-4.3 4.2-7.3 7.1-10.5 5-5.5 10.2-11.5 14.3-17.7 1.7-2.6 3.1-10.3 3.5-14.6H.8C.7 12.5 1 27.5.5 32.3c-1.3 10.9.8 37.4.2 44.5-.4 4-.6 12.9-.7 21.1h24.1l-.4-13c0-.3 3-.7 3.2-.7z"/></svg>