<svg xmlns="http://www.w3.org/2000/svg" width="24" height="24" viewBox="0 0 24 24"><path d="M21.43 4.36c-.58.373-1.915.914-2.573.914C18.107 4.49 17.047 4 15.875 4c-2.278 0-4.126 1.848-4.126 4.125 0 .317.036.625.104.92-3.092-.08-6.472-1.63-8.507-4.28-1.25 2.165-.168 4.574 1.25 5.45-.485.038-1.38-.055-1.8-.466-.03 1.437.663 3.34 3.183 4.032-.486.26-1.345.186-1.718.13.13 1.214 1.83 2.8 3.688 2.8-.662.766-3.154 2.156-5.95 1.714 1.9 1.155 4.112 1.824 6.454 1.824 6.657 0 11.827-5.395 11.548-12.05v-.023-.052c0-.02 0-.04-.002-.06.606-.415 1.42-1.148 2-2.113-.337.186-1.348.558-2.288.65.604-.326 1.498-1.393 1.72-2.24"/></svg>